<svg width="145" height="30" viewBox="0 0 145 30" fill="none" xmlns="http://www.w3.org/2000/svg">
<g clip-path="url(#clip0_59_133)">
<path d="M12.94 5.12C13.6 5.08 14.43 5.09 15.43 5.15C18.15 5.45 20.34 6.42 22 8.06C23.62 9.68 24.59 11.81 24.91 14.45C24.99 15.25 24.99 16.12 24.91 17.06C24.91 17.1 24.91 17.14 24.91 17.18C24.61 19.68 23.69 21.72 22.15 23.3C21.41 24.02 20.57 24.62 19.63 25.1C18.39 25.7 16.99 26.09 15.43 26.27C14.59 26.35 13.65 26.35 12.61 26.27C12.55 26.27 12.5 26.27 12.46 26.27C9.62 25.93 7.39 24.94 5.77 23.3C4.21 21.74 3.28 19.7 2.98 17.18C2.9 16.42 2.9 15.56 2.98 14.6C2.98 14.54 2.98 14.49 2.98 14.45C3.14 13.25 3.39 12.23 3.73 11.39C4.63 9.09 6.14 7.42 8.26 6.38C9.62 5.68 11.18 5.26 12.94 5.12ZM14.56 7.07C12.88 6.89 11.45 7.34 10.27 8.42C9.99 8.68 9.74 8.97 9.52 9.29C8.98 10.11 8.61 11.13 8.41 12.35C8.21 13.81 8.18 15.55 8.32 17.57C8.34 17.75 8.36 17.92 8.38 18.08C8.6 20.38 9.32 22.05 10.54 23.09C11.86 24.19 13.36 24.56 15.04 24.2C15.9 24.02 16.67 23.65 17.35 23.09C18.57 22.05 19.29 20.38 19.51 18.08C19.71 16.4 19.72 14.62 19.54 12.74C19.52 12.6 19.5 12.47 19.48 12.35C19.34 11.49 19.1 10.69 18.76 9.95C17.92 8.25 16.52 7.29 14.56 7.07ZM30.9177 12.62C32.9977 12.54 34.0077 12.5 33.9477 12.5H34.1277V17.81C34.1277 21.71 34.1577 23.75 34.2177 23.93C34.3177 24.21 34.9577 24.35 36.1377 24.35C36.6977 24.35 37.1877 24.27 37.6077 24.11C38.2877 23.81 38.8077 23.34 39.1677 22.7C39.3677 22.32 39.4777 21.99 39.4977 21.71C39.5177 21.61 39.5277 20.55 39.5277 18.53C39.5277 16.55 39.5077 15.51 39.4677 15.41C39.4077 15.21 39.2777 15.08 39.0777 15.02C38.7977 14.94 38.3877 14.9 37.8477 14.9H37.4577V13.82C37.4577 13.1 37.4677 12.74 37.4877 12.74L40.5777 12.62C42.6177 12.54 43.6477 12.5 43.6677 12.5C43.6877 12.5 43.6977 14.28 43.6977 17.84C43.6977 21.4 43.7177 23.23 43.7577 23.33C43.8177 23.53 43.9477 23.66 44.1477 23.72C44.4277 23.8 44.8377 23.84 45.3777 23.84H45.7677V24.92C45.7677 25.64 45.7577 26 45.7377 26C45.3577 26 44.3577 26.03 42.7377 26.09C41.1177 26.15 40.1177 26.18 39.7377 26.18C39.7177 26.18 39.7077 25.9 39.7077 25.34V24.53L39.5277 24.68C38.6277 25.42 37.5977 25.89 36.4377 26.09C35.5377 26.25 34.5377 26.25 33.4377 26.09C33.3977 26.07 33.3577 26.06 33.3177 26.06C32.6977 25.98 32.1477 25.81 31.6677 25.55C30.8277 25.13 30.2877 24.4 30.0477 23.36L29.9877 23.06L29.9577 19.25C29.9577 16.79 29.9377 15.48 29.8977 15.32C29.7977 15.12 29.4977 14.99 28.9977 14.93C28.8777 14.91 28.6377 14.9 28.2777 14.9H27.8877V13.82V12.74H27.9777L30.9177 12.62ZM49.5979 12.62C51.4779 12.54 52.3979 12.5 52.3579 12.5H52.5379V13.28L52.5679 14.06L52.6579 13.91C53.0379 13.35 53.5479 12.95 54.1879 12.71C55.1679 12.35 56.2479 12.41 57.4279 12.89C57.6879 12.97 57.9179 13.08 58.1179 13.22C58.7979 13.68 59.1979 14.25 59.3179 14.93C59.3979 15.29 59.3779 15.63 59.2579 15.95C59.0979 16.57 58.7379 17.02 58.1779 17.3C57.8379 17.44 57.4979 17.51 57.1579 17.51C56.7779 17.51 56.4379 17.44 56.1379 17.3C55.5579 17.02 55.1779 16.57 54.9979 15.95C54.9779 15.85 54.9679 15.64 54.9679 15.32C54.9679 15 54.9879 14.77 55.0279 14.63C55.1079 14.45 55.1279 14.36 55.0879 14.36C55.0279 14.3 54.8479 14.36 54.5479 14.54C54.2479 14.68 53.9779 14.92 53.7379 15.26C53.3579 15.86 53.0879 16.74 52.9279 17.9C52.9079 18.1 52.8879 19.16 52.8679 21.08V23.84H54.1579H55.4779V24.92V26H55.1479L52.8679 25.94C51.5479 25.92 50.2979 25.92 49.1179 25.94C47.7779 25.98 47.0979 26 47.0779 26H46.8079V24.92V23.84H47.8579H48.8779V19.7C48.8779 16.94 48.8579 15.51 48.8179 15.41C48.7579 15.21 48.6279 15.08 48.4279 15.02C48.1479 14.94 47.7379 14.9 47.1979 14.9H46.8079V13.82V12.74H46.8979L49.5979 12.62Z" fill="black"/>
<path d="M82.0352 27H80.5703L64.8525 6.91699V27H63.5635V5.02734H65.0283L80.7461 25.1104V5.02734H82.0352V27ZM93.5488 27.293C92.123 27.293 90.8389 26.9609 89.6963 26.2969C88.5635 25.623 87.665 24.7148 87.001 23.5723C86.3369 22.4297 86.0049 21.1309 86.0049 19.6758C86.0049 18.2305 86.3369 16.9365 87.001 15.7939C87.665 14.6416 88.5635 13.7334 89.6963 13.0693C90.8389 12.3955 92.123 12.0586 93.5488 12.0586C94.9844 12.0586 96.2686 12.3955 97.4014 13.0693C98.5342 13.7334 99.4277 14.6416 100.082 15.7939C100.736 16.9365 101.063 18.2305 101.063 19.6758C101.063 21.1211 100.736 22.4199 100.082 23.5723C99.4277 24.7148 98.5342 25.623 97.4014 26.2969C96.2686 26.9609 94.9844 27.293 93.5488 27.293ZM93.5488 26.1943C94.7402 26.1943 95.8096 25.9111 96.7568 25.3447C97.7139 24.7686 98.4658 23.9922 99.0127 23.0156C99.5596 22.0293 99.833 20.916 99.833 19.6758C99.833 18.4355 99.5596 17.3271 99.0127 16.3506C98.4658 15.3643 97.7188 14.5879 96.7715 14.0215C95.8242 13.4453 94.75 13.1572 93.5488 13.1572C92.3574 13.1572 91.2832 13.4453 90.3262 14.0215C89.3691 14.5879 88.6123 15.3643 88.0557 16.3506C87.5088 17.3271 87.2354 18.4355 87.2354 19.6758C87.2354 20.916 87.5088 22.0293 88.0557 23.0156C88.6123 23.9922 89.3643 24.7686 90.3115 25.3447C91.2686 25.9111 92.3477 26.1943 93.5488 26.1943ZM112.328 26.6777C111.498 27.0879 110.673 27.293 109.853 27.293C109.11 27.293 108.456 27.127 107.89 26.7949C107.333 26.4629 106.898 25.9941 106.586 25.3887C106.273 24.7734 106.117 24.0605 106.117 23.25V13.4355H103.554V12.3516H106.161V8.68945H107.318V12.3516H111.903V13.4355H107.318V23.0303C107.318 23.9873 107.567 24.7588 108.065 25.3447C108.573 25.9209 109.242 26.209 110.072 26.209C110.707 26.209 111.361 26.0234 112.035 25.6523L112.328 26.6777ZM128.734 25.1396C126.957 26.5752 124.97 27.293 122.772 27.293C121.278 27.293 119.94 26.9609 118.759 26.2969C117.587 25.623 116.664 24.7051 115.99 23.543C115.316 22.3711 114.979 21.0381 114.979 19.5439C114.979 18.0986 115.292 16.8145 115.917 15.6914C116.552 14.5586 117.421 13.6699 118.524 13.0254C119.628 12.3809 120.883 12.0586 122.289 12.0586C123.695 12.0586 124.936 12.3857 126.01 13.04C127.094 13.6846 127.938 14.583 128.544 15.7354C129.149 16.8877 129.452 18.2158 129.452 19.7197V20.1445H116.254C116.312 21.3262 116.635 22.3711 117.221 23.2793C117.816 24.1875 118.603 24.9004 119.579 25.418C120.556 25.9355 121.649 26.1943 122.86 26.1943C124.774 26.1943 126.532 25.5449 128.134 24.2461L128.734 25.1396ZM116.225 19.0898H128.324C128.266 17.918 127.973 16.8877 127.445 15.999C126.928 15.1104 126.229 14.417 125.351 13.9189C124.472 13.4111 123.466 13.1572 122.333 13.1572C121.2 13.1572 120.185 13.4111 119.286 13.9189C118.388 14.4268 117.67 15.125 117.133 16.0137C116.596 16.8926 116.293 17.918 116.225 19.0898ZM132.382 25.7109L132.821 24.6416C133.192 24.9639 133.593 25.2422 134.022 25.4766C134.452 25.7109 134.901 25.8916 135.37 26.0186C135.849 26.1357 136.327 26.1943 136.806 26.1943C137.899 26.1943 138.793 25.9062 139.486 25.3301C140.18 24.7441 140.526 23.9971 140.526 23.0889C140.526 22.4346 140.355 21.9023 140.014 21.4922C139.672 21.082 139.228 20.7402 138.681 20.4668C138.144 20.1934 137.572 19.9346 136.967 19.6904C136.332 19.417 135.712 19.1289 135.106 18.8262C134.501 18.5137 134.003 18.1133 133.612 17.625C133.222 17.127 133.026 16.4873 133.026 15.7061C133.026 14.9639 133.207 14.3193 133.568 13.7725C133.93 13.2256 134.438 12.8057 135.092 12.5127C135.756 12.21 136.522 12.0586 137.392 12.0586C138.603 12.0586 139.784 12.3418 140.937 12.9082L140.526 13.9775C140.253 13.8115 139.94 13.6699 139.589 13.5527C139.237 13.4258 138.871 13.3281 138.49 13.2598C138.119 13.1914 137.758 13.1572 137.406 13.1572C136.479 13.1572 135.722 13.3916 135.136 13.8604C134.55 14.3193 134.257 14.9297 134.257 15.6914C134.257 16.209 134.398 16.6484 134.682 17.0098C134.975 17.3711 135.37 17.6885 135.868 17.9619C136.376 18.2256 136.957 18.4941 137.611 18.7676C138.275 19.0508 138.925 19.3633 139.56 19.7051C140.194 20.0371 140.717 20.4717 141.127 21.0088C141.547 21.5361 141.757 22.2295 141.757 23.0889C141.757 23.9189 141.547 24.6514 141.127 25.2861C140.717 25.9111 140.146 26.4043 139.413 26.7656C138.681 27.1172 137.836 27.293 136.879 27.293C135.238 27.293 133.739 26.7656 132.382 25.7109Z" fill="black"/>
</g>
<defs>
<clipPath id="clip0_59_133">
<rect width="145" height="30" fill="white"/>
</clipPath>
</defs>
</svg>
