<svg width="512" height="555" viewBox="0 0 512 555" fill="none" xmlns="http://www.w3.org/2000/svg">
<g filter="url(#filter0_dd_123_2)">
<path d="M84.0611 85.166C84.0534 76.8817 90.7629 70.1598 99.0472 70.1521L412.047 69.8626C420.331 69.855 427.053 76.5645 427.061 84.8488L427.417 469.849C427.425 478.133 420.715 484.855 412.431 484.862L99.431 485.152C91.1468 485.16 84.4248 478.45 84.4171 470.166L84.0611 85.166Z" fill="white"/>
<path d="M412.43 483.862L412.431 484.862L99.431 485.152L99.4301 484.152L412.43 483.862ZM426.417 469.85L426.061 84.8497C426.054 77.1177 419.78 70.8555 412.048 70.8626L99.0481 71.1521C91.3161 71.1593 85.0539 77.4331 85.0611 85.1651L85.4171 470.165C85.4243 477.897 91.6981 484.159 99.4301 484.152L99.431 485.152C91.1468 485.16 84.4248 478.45 84.4171 470.166L84.0611 85.166C84.0534 76.8817 90.7629 70.1598 99.0472 70.1521L412.047 69.8626L412.434 69.8672C420.539 70.0648 427.053 76.6938 427.061 84.8488L427.417 469.849C427.425 478.004 420.923 484.645 412.818 484.857L412.431 484.862L412.43 483.862C420.162 483.855 426.424 477.581 426.417 469.85Z" fill="black"/>
<path d="M412.081 105.613L412.082 106.613L128.081 106.875L128.08 105.875L412.081 105.613Z" fill="#DDDDDD"/>
<path d="M412.1 125.863L412.101 126.863L128.1 127.125L128.099 126.125L412.1 125.863Z" fill="#DDDDDD"/>
<path d="M412.118 145.863L412.119 146.863L128.118 147.125L128.117 146.125L412.118 145.863Z" fill="#DDDDDD"/>
<path d="M412.118 145.863L412.119 146.863L128.118 147.125L128.117 146.125L412.118 145.863Z" fill="#DDDDDD"/>
<path d="M412.137 165.863L412.138 166.863L128.137 167.125L128.136 166.125L412.137 165.863Z" fill="#DDDDDD"/>
<path d="M412.155 185.863L412.156 186.863L128.155 187.125L128.154 186.125L412.155 185.863Z" fill="#DDDDDD"/>
<path d="M412.174 205.863L412.175 206.863L128.174 207.125L128.173 206.125L412.174 205.863Z" fill="#DDDDDD"/>
<path d="M412.193 226.113L412.194 227.113L128.193 227.375L128.192 226.375L412.193 226.113Z" fill="#DDDDDD"/>
<path d="M412.211 246.113L412.212 247.113L128.211 247.375L128.21 246.375L412.211 246.113Z" fill="#DDDDDD"/>
<path d="M412.211 246.113L412.212 247.113L128.211 247.375L128.21 246.375L412.211 246.113Z" fill="#DDDDDD"/>
<path d="M412.23 266.113L412.231 267.113L128.23 267.375L128.229 266.375L412.23 266.113Z" fill="#DDDDDD"/>
<path d="M412.248 286.113L412.249 287.113L128.248 287.375L128.247 286.375L412.248 286.113Z" fill="#DDDDDD"/>
<path d="M412.266 305.863L412.267 306.863L128.266 307.125L128.265 306.125L412.266 305.863Z" fill="#DDDDDD"/>
<path d="M412.285 326.113L412.286 327.113L128.285 327.375L128.284 326.375L412.285 326.113Z" fill="#DDDDDD"/>
<path d="M412.304 346.113L412.305 347.113L128.304 347.375L128.303 346.375L412.304 346.113Z" fill="#DDDDDD"/>
<path d="M412.304 346.113L412.305 347.113L128.304 347.375L128.303 346.375L412.304 346.113Z" fill="#DDDDDD"/>
<path d="M412.322 366.113L412.323 367.113L128.322 367.375L128.321 366.375L412.322 366.113Z" fill="#DDDDDD"/>
<path d="M412.341 386.113L412.342 387.113L128.341 387.375L128.34 386.375L412.341 386.113Z" fill="#DDDDDD"/>
<path d="M412.359 405.863L412.36 406.863L128.359 407.125L128.358 406.125L412.359 405.863Z" fill="#DDDDDD"/>
<path d="M412.378 426.113L412.379 427.113L128.378 427.375L128.377 426.375L412.378 426.113Z" fill="#DDDDDD"/>
<path d="M412.396 446.113L412.397 447.113L128.396 447.375L128.395 446.375L412.396 446.113Z" fill="#DDDDDD"/>
<path d="M412.396 446.113L412.397 447.113L128.396 447.375L128.395 446.375L412.396 446.113Z" fill="#DDDDDD"/>
<path d="M412.415 466.113L412.416 467.113L128.415 467.375L128.414 466.375L412.415 466.113Z" fill="#DDDDDD"/>
<path d="M119.11 137.634C119.113 141.776 115.759 145.137 111.617 145.141C107.474 145.144 104.113 141.79 104.11 137.647C104.106 133.505 107.461 130.144 111.603 130.141C115.745 130.137 119.106 133.491 119.11 137.634Z" fill="white"/>
<path d="M118.11 137.635C118.106 134.045 115.193 131.137 111.604 131.141C108.014 131.144 105.106 134.057 105.11 137.647C105.113 141.236 108.026 144.144 111.616 144.141L111.617 145.141C107.474 145.144 104.113 141.79 104.11 137.647C104.106 133.505 107.461 130.144 111.603 130.141C115.745 130.137 119.106 133.491 119.11 137.634C119.113 141.776 115.759 145.137 111.617 145.141L111.616 144.141C115.205 144.137 118.113 141.224 118.11 137.635Z" fill="black"/>
<path d="M119.11 137.634C119.113 141.776 115.759 145.137 111.617 145.141C107.474 145.144 104.113 141.79 104.11 137.647C104.106 133.505 107.461 130.144 111.603 130.141C115.745 130.137 119.106 133.491 119.11 137.634Z" fill="white"/>
<path d="M118.11 137.635C118.106 134.045 115.193 131.137 111.604 131.141C108.014 131.144 105.106 134.057 105.11 137.647C105.113 141.236 108.026 144.144 111.616 144.141L111.617 145.141C107.474 145.144 104.113 141.79 104.11 137.647C104.106 133.505 107.461 130.144 111.603 130.141C115.745 130.137 119.106 133.491 119.11 137.634C119.113 141.776 115.759 145.137 111.617 145.141L111.616 144.141C115.205 144.137 118.113 141.224 118.11 137.635Z" fill="black"/>
<path d="M119.239 277.634C119.243 281.776 115.888 285.137 111.746 285.141C107.604 285.144 104.243 281.79 104.239 277.647C104.235 273.505 107.59 270.144 111.732 270.141C115.874 270.137 119.235 273.491 119.239 277.634Z" fill="white"/>
<path d="M118.239 277.635C118.236 274.045 115.323 271.137 111.733 271.141C108.143 271.144 105.236 274.057 105.239 277.647C105.242 281.236 108.155 284.144 111.745 284.141L111.746 285.141C107.604 285.144 104.243 281.79 104.239 277.647C104.235 273.505 107.59 270.144 111.732 270.141C115.874 270.137 119.235 273.491 119.239 277.634C119.243 281.776 115.888 285.137 111.746 285.141L111.745 284.141C115.335 284.137 118.242 281.224 118.239 277.635Z" fill="black"/>
<path d="M119.369 417.634C119.372 421.776 116.018 425.137 111.876 425.141C107.733 425.144 104.372 421.79 104.369 417.647C104.365 413.505 107.72 410.144 111.862 410.141C116.004 410.137 119.365 413.491 119.369 417.634Z" fill="white"/>
<path d="M118.369 417.635C118.365 414.045 115.452 411.137 111.863 411.141C108.273 411.144 105.365 414.057 105.369 417.647C105.372 421.236 108.285 424.144 111.875 424.141L111.876 425.141C107.733 425.144 104.372 421.79 104.369 417.647C104.365 413.505 107.72 410.144 111.862 410.141C116.004 410.137 119.365 413.491 119.369 417.634C119.372 421.776 116.018 425.137 111.876 425.141L111.875 424.141C115.464 424.137 118.372 421.224 118.369 417.635Z" fill="black"/>
<path d="M412.081 105.613L412.082 106.613L128.081 106.875L128.08 105.875L412.081 105.613Z" fill="#DDDDDD"/>
<path d="M412.1 125.863L412.101 126.863L128.1 127.125L128.099 126.125L412.1 125.863Z" fill="#DDDDDD"/>
<path d="M412.118 145.863L412.119 146.863L128.118 147.125L128.117 146.125L412.118 145.863Z" fill="#DDDDDD"/>
<path d="M412.118 145.863L412.119 146.863L128.118 147.125L128.117 146.125L412.118 145.863Z" fill="#DDDDDD"/>
<path d="M412.137 165.863L412.138 166.863L128.137 167.125L128.136 166.125L412.137 165.863Z" fill="#DDDDDD"/>
<path d="M412.155 185.863L412.156 186.863L128.155 187.125L128.154 186.125L412.155 185.863Z" fill="#DDDDDD"/>
</g>
<path d="M141.749 100.345L141.895 100.14C142.13 100.335 142.376 100.501 142.634 100.637C142.892 100.77 143.16 100.871 143.437 100.941C143.718 101.007 144.004 101.04 144.293 101.04C144.781 101.04 145.212 100.947 145.587 100.763C145.966 100.576 146.261 100.319 146.471 99.995C146.686 99.6667 146.793 99.2916 146.793 98.8697C146.792 98.4244 146.68 98.0632 146.458 97.786C146.235 97.505 145.949 97.2728 145.601 97.0896C145.254 96.9024 144.888 96.7289 144.505 96.5691C144.22 96.4483 143.941 96.3216 143.667 96.189C143.393 96.0564 143.145 95.9043 142.922 95.7327C142.704 95.5571 142.53 95.3502 142.4 95.112C142.271 94.8739 142.207 94.5868 142.206 94.2509C142.206 93.8329 142.309 93.4656 142.516 93.1491C142.722 92.8325 143.011 92.5861 143.382 92.41C143.757 92.2338 144.189 92.1455 144.677 92.1451C145.001 92.1448 145.316 92.1855 145.62 92.2673C145.929 92.3451 146.218 92.462 146.488 92.618L146.353 92.8467C146.084 92.6985 145.804 92.5855 145.515 92.5076C145.226 92.4297 144.937 92.391 144.648 92.3912C144.222 92.3916 143.845 92.4701 143.517 92.6266C143.193 92.7832 142.937 93.0022 142.75 93.2836C142.563 93.5611 142.47 93.8835 142.47 94.2507C142.47 94.6452 142.574 94.9693 142.781 95.223C142.993 95.4767 143.262 95.6913 143.591 95.8668C143.923 96.0384 144.272 96.2021 144.64 96.358C144.937 96.4827 145.228 96.6153 145.513 96.7557C145.799 96.896 146.056 97.0598 146.287 97.2471C146.522 97.4305 146.707 97.653 146.844 97.9146C146.985 98.1723 147.056 98.4866 147.056 98.8577C147.057 99.3304 146.94 99.7504 146.706 100.118C146.472 100.481 146.148 100.767 145.734 100.974C145.324 101.182 144.851 101.286 144.316 101.286C143.855 101.286 143.404 101.207 142.963 101.047C142.525 100.883 142.12 100.649 141.749 100.345ZM151.459 101.221C150.892 101.221 150.382 101.089 149.929 100.824C149.48 100.555 149.122 100.192 148.856 99.735C148.594 99.2743 148.462 98.7549 148.462 98.1768C148.461 97.5986 148.592 97.0809 148.853 96.6237C149.118 96.1625 149.475 95.7989 149.924 95.5328C150.377 95.2629 150.887 95.1276 151.453 95.1271C152.02 95.1266 152.527 95.2609 152.977 95.53C153.426 95.7952 153.782 96.1582 154.044 96.6189C154.307 97.0756 154.438 97.5931 154.438 98.1712C154.439 98.7454 154.309 99.2631 154.047 99.7243C153.786 100.186 153.431 100.551 152.982 100.821C152.533 101.087 152.025 101.22 151.459 101.221ZM151.459 100.998C151.978 100.998 152.443 100.874 152.853 100.628C153.267 100.377 153.592 100.039 153.83 99.6132C154.072 99.1872 154.193 98.7066 154.192 98.1715C154.192 97.6363 154.07 97.1559 153.828 96.7304C153.589 96.3048 153.263 95.9692 152.848 95.7235C152.438 95.4739 151.973 95.3493 151.453 95.3498C150.934 95.3502 150.465 95.4757 150.047 95.7261C149.634 95.9725 149.306 96.3088 149.064 96.7348C148.826 97.1608 148.707 97.6414 148.708 98.1765C148.708 98.7117 148.828 99.192 149.067 99.6176C149.309 100.043 149.638 100.381 150.052 100.63C150.47 100.876 150.939 100.999 151.459 100.998ZM165.158 101.091L164.918 101.091L164.915 97.7924C164.914 97.0229 164.732 96.4215 164.368 95.9882C164.004 95.555 163.5 95.3386 162.856 95.3392C162.207 95.3398 161.696 95.561 161.321 96.0028C160.95 96.4406 160.765 97.0384 160.766 97.7962L160.769 101.095L160.529 101.095L160.526 97.7965C160.525 97.0269 160.343 96.4255 159.979 95.9923C159.62 95.559 159.117 95.3427 158.473 95.3433C157.824 95.3439 157.313 95.5651 156.938 96.0068C156.564 96.4447 156.377 97.0425 156.377 97.8003L156.381 101.099L156.14 101.099L156.135 95.24L156.358 95.2398L156.371 96.6108C156.542 96.1224 156.807 95.753 157.166 95.5027C157.529 95.2484 157.971 95.1211 158.49 95.1206C159.064 95.1201 159.539 95.2739 159.914 95.5822C160.29 95.8904 160.542 96.3296 160.672 96.8998C160.819 96.3177 161.081 95.876 161.456 95.5749C161.834 95.2699 162.309 95.1171 162.879 95.1165C163.594 95.1159 164.151 95.3517 164.549 95.824C164.952 96.2924 165.154 96.9484 165.155 97.7922L165.158 101.091ZM172.253 100.329C171.55 100.911 170.76 101.203 169.881 101.204C169.287 101.204 168.757 101.072 168.292 100.807C167.827 100.542 167.462 100.177 167.196 99.7122C166.934 99.2476 166.802 98.7164 166.802 98.1188C166.801 97.5367 166.926 97.0191 167.175 96.5657C167.425 96.1123 167.768 95.7566 168.205 95.4983C168.643 95.2401 169.141 95.1108 169.699 95.1102C170.25 95.1097 170.736 95.2343 171.159 95.4839C171.581 95.7335 171.911 96.0789 172.15 96.5201C172.388 96.9574 172.508 97.4631 172.509 98.0373L172.509 98.2014L167.048 98.2064C167.048 98.7455 167.172 99.2239 167.418 99.6416C167.669 100.059 168.007 100.387 168.433 100.625C168.859 100.863 169.337 100.982 169.869 100.981C170.681 100.98 171.431 100.702 172.118 100.147L172.253 100.329ZM167.048 97.9838L172.292 97.9789C172.276 97.4555 172.156 96.9966 171.933 96.6023C171.71 96.2041 171.407 95.8938 171.024 95.6715C170.641 95.4453 170.199 95.3324 169.699 95.3329C169.199 95.3334 168.752 95.4471 168.358 95.674C167.964 95.9009 167.651 96.2137 167.421 96.6123C167.191 97.0071 167.067 97.4642 167.048 97.9838ZM176.806 100.957C176.506 101.118 176.201 101.198 175.892 101.198C175.619 101.199 175.381 101.138 175.177 101.017C174.974 100.892 174.816 100.717 174.702 100.49C174.589 100.264 174.532 100 174.532 99.6995L174.528 95.4456L173.502 95.4466L173.502 95.2239L174.527 95.223L174.526 93.7581L174.766 93.7579L174.768 95.2227L176.643 95.221L176.643 95.4437L174.768 95.4454L174.772 99.6583C174.772 100.057 174.876 100.377 175.083 100.619C175.29 100.857 175.566 100.976 175.91 100.976C176.168 100.975 176.435 100.901 176.712 100.752L176.806 100.957ZM178.453 101.079L178.445 92.2896L178.685 92.2894L178.689 96.6136C179.071 95.6055 179.846 95.1009 181.014 95.0998C181.795 95.099 182.405 95.3348 182.842 95.8071C183.28 96.2754 183.5 96.9315 183.501 97.7752L183.504 101.074L183.263 101.074L183.26 97.7754C183.26 97.0059 183.06 96.4045 182.661 95.9713C182.262 95.5381 181.707 95.3218 180.996 95.3224C180.285 95.3231 179.723 95.5443 179.309 95.9861C178.896 96.424 178.689 97.0218 178.69 97.7797L178.693 101.078L178.453 101.079ZM185.775 92.7516C185.693 92.7517 185.625 92.7225 185.57 92.6639C185.515 92.6054 185.488 92.5351 185.488 92.4531C185.488 92.3749 185.515 92.3085 185.57 92.2538C185.624 92.1951 185.693 92.1658 185.775 92.1657C185.857 92.1656 185.927 92.1948 185.986 92.2534C186.044 92.308 186.074 92.3763 186.074 92.4584C186.074 92.5404 186.045 92.6107 185.986 92.6694C185.927 92.7241 185.857 92.7515 185.775 92.7516ZM185.906 101.072L185.666 101.072L185.66 95.2127L185.9 95.2124L185.906 101.072ZM193.242 101.065L193.002 101.065L192.999 97.7664C192.998 96.9969 192.798 96.3955 192.399 95.9623C192 95.5291 191.447 95.3128 190.74 95.3134C190.264 95.3139 189.852 95.4139 189.504 95.6134C189.161 95.8129 188.895 96.0964 188.708 96.4637C188.521 96.8272 188.428 97.2628 188.428 97.7706L188.431 101.069L188.191 101.07L188.186 95.2103L188.426 95.2101L188.427 96.6164C188.61 96.1162 188.899 95.737 189.293 95.4788C189.688 95.2207 190.172 95.0913 190.746 95.0908C191.531 95.09 192.143 95.3258 192.581 95.7981C193.019 96.2664 193.238 96.9225 193.239 97.7662L193.242 101.065ZM197.677 100.944C197.138 100.944 196.654 100.816 196.224 100.558C195.794 100.301 195.452 99.9517 195.197 99.5105C194.947 99.0693 194.822 98.5714 194.821 98.0167C194.821 97.462 194.945 96.9638 195.195 96.5222C195.448 96.0806 195.79 95.7306 196.219 95.4724C196.652 95.2142 197.141 95.0849 197.684 95.0844C198.293 95.0838 198.832 95.2474 199.301 95.575C199.77 95.8988 200.111 96.3262 200.322 96.8573L200.32 95.1991L200.555 95.1989L200.56 100.923C200.561 101.588 200.444 102.158 200.21 102.635C199.98 103.112 199.644 103.475 199.203 103.726C198.766 103.98 198.237 104.107 197.616 104.108C196.717 104.109 195.971 103.795 195.377 103.167L195.546 102.996C196.102 103.59 196.807 103.886 197.662 103.885C198.217 103.885 198.692 103.765 199.086 103.526C199.484 103.292 199.789 102.955 199.999 102.518C200.213 102.08 200.32 101.557 200.32 100.947L200.318 99.1776C200.108 99.7091 199.766 100.137 199.294 100.462C198.826 100.783 198.287 100.943 197.677 100.944ZM197.689 100.721C198.165 100.721 198.595 100.613 198.978 100.398C199.36 100.182 199.67 99.8872 199.908 99.512C200.146 99.1368 200.283 98.7109 200.317 98.2343L200.317 97.789C200.281 97.3124 200.144 96.8868 199.906 96.512C199.671 96.1372 199.362 95.8426 198.979 95.6281C198.6 95.4136 198.172 95.3066 197.696 95.307C197.199 95.3075 196.752 95.427 196.354 95.6657C195.956 95.9004 195.642 96.223 195.412 96.6333C195.181 97.0398 195.067 97.5008 195.067 98.0165C195.068 98.5282 195.183 98.989 195.414 99.399C195.645 99.8089 195.958 100.133 196.353 100.371C196.747 100.605 197.193 100.722 197.689 100.721ZM210.597 101.049L210.369 101.049L210.367 99.6488C210.184 100.141 209.9 100.518 209.513 100.78C209.127 101.039 208.654 101.168 208.095 101.168C207.33 101.169 206.732 100.935 206.302 100.467C205.876 99.9947 205.662 99.3367 205.661 98.493L205.658 95.1942L205.899 95.1939L205.902 98.4928C205.902 99.2623 206.096 99.8637 206.483 100.297C206.874 100.73 207.416 100.946 208.107 100.946C208.802 100.945 209.351 100.726 209.753 100.288C210.155 99.8463 210.355 99.2465 210.355 98.4887L210.352 95.1898L210.592 95.1896L210.597 101.049ZM212.355 100.532L212.489 100.338C212.642 100.467 212.802 100.576 212.97 100.666C213.142 100.756 213.32 100.824 213.503 100.871C213.687 100.917 213.873 100.94 214.06 100.94C214.533 100.94 214.921 100.807 215.226 100.541C215.53 100.271 215.682 99.9271 215.682 99.5091C215.682 99.2122 215.607 98.9721 215.459 98.7886C215.314 98.6052 215.124 98.453 214.89 98.3321C214.659 98.2112 214.417 98.0982 214.163 97.9929C213.909 97.8838 213.665 97.7688 213.43 97.6479C213.196 97.527 213.004 97.3729 212.855 97.1856C212.707 96.9943 212.632 96.7483 212.632 96.4475C212.632 96.1662 212.698 95.924 212.831 95.7207C212.967 95.5136 213.158 95.3532 213.404 95.2397C213.654 95.1262 213.945 95.0693 214.277 95.069C214.711 95.0686 215.135 95.1659 215.549 95.3608L215.45 95.5718C215.344 95.5133 215.227 95.4646 215.098 95.4257C214.969 95.3828 214.834 95.3497 214.694 95.3264C214.557 95.3031 214.422 95.2915 214.289 95.2917C213.871 95.292 213.532 95.3998 213.27 95.6149C213.008 95.826 212.878 96.1035 212.878 96.4473C212.878 96.6973 212.945 96.9042 213.078 97.0682C213.215 97.2321 213.391 97.3706 213.606 97.4837C213.825 97.5929 214.053 97.6981 214.292 97.7995C214.557 97.9125 214.815 98.0373 215.065 98.1737C215.315 98.3063 215.521 98.478 215.681 98.6888C215.845 98.8996 215.928 99.1749 215.928 99.5147C215.928 99.839 215.848 100.126 215.688 100.376C215.532 100.623 215.316 100.816 215.039 100.957C214.761 101.094 214.439 101.163 214.072 101.163C213.439 101.164 212.867 100.953 212.355 100.532ZM222.667 100.282C221.964 100.865 221.174 101.156 220.295 101.157C219.701 101.158 219.172 101.025 218.706 100.76C218.241 100.495 217.876 100.13 217.61 99.6655C217.348 99.2009 217.216 98.6698 217.216 98.0721C217.215 97.4901 217.34 96.9724 217.589 96.5191C217.839 96.0657 218.182 95.7099 218.619 95.4517C219.057 95.1935 219.555 95.0641 220.113 95.0636C220.664 95.0631 221.15 95.1876 221.573 95.4373C221.995 95.6869 222.325 96.0323 222.564 96.4735C222.802 96.9107 222.922 97.4165 222.923 97.9907L222.923 98.1548L217.462 98.1598C217.462 98.6989 217.586 99.1773 217.832 99.595C218.083 100.013 218.421 100.341 218.847 100.578C219.273 100.816 219.752 100.935 220.283 100.935C221.095 100.934 221.845 100.656 222.532 100.1L222.667 100.282ZM217.462 97.9372L222.706 97.9323C222.69 97.4089 222.57 96.95 222.347 96.5557C222.124 96.1575 221.821 95.8472 221.438 95.6249C221.055 95.3987 220.613 95.2858 220.113 95.2863C219.613 95.2867 219.166 95.4004 218.772 95.6273C218.378 95.8543 218.065 96.1671 217.835 96.5657C217.605 96.9605 217.481 97.4176 217.462 97.9372ZM225.304 101.035L225.064 101.036L225.059 95.3989L224.033 95.3998L224.033 95.1772L225.059 95.1762L225.057 93.5708C225.057 93.2661 225.113 93.0023 225.226 92.7796C225.339 92.5529 225.497 92.3789 225.701 92.2577C225.904 92.1325 226.142 92.0697 226.415 92.0695C226.564 92.0694 226.716 92.0907 226.872 92.1335C227.029 92.1724 227.181 92.2309 227.329 92.3089L227.236 92.5141C227.099 92.44 226.962 92.3854 226.826 92.3504C226.693 92.3114 226.562 92.292 226.433 92.2921C226.089 92.2925 225.814 92.4138 225.607 92.6562C225.4 92.8947 225.297 93.2131 225.297 93.6115L225.299 95.176L227.174 95.1743L227.174 95.3969L225.299 95.3987L225.304 101.035ZM233.742 101.028L233.513 101.028L233.512 99.6274C233.329 100.12 233.044 100.497 232.658 100.759C232.271 101.017 231.799 101.147 231.24 101.147C230.474 101.148 229.876 100.914 229.446 100.446C229.02 99.9733 228.807 99.3153 228.806 98.4716L228.803 95.1728L229.043 95.1725L229.046 98.4714C229.047 99.2409 229.241 99.8423 229.628 100.276C230.019 100.709 230.56 100.925 231.251 100.924C231.947 100.924 232.495 100.705 232.897 100.267C233.299 99.8249 233.5 99.2251 233.499 98.4672L233.496 95.1684L233.736 95.1682L233.742 101.028ZM236.144 101.025L235.91 101.026L235.902 92.2365L236.136 92.2363L236.144 101.025ZM238.5 101.14C238.418 101.14 238.347 101.111 238.289 101.053C238.234 100.998 238.207 100.93 238.207 100.848C238.206 100.766 238.234 100.697 238.288 100.643C238.347 100.584 238.417 100.554 238.499 100.554C238.581 100.554 238.65 100.584 238.704 100.642C238.763 100.697 238.792 100.765 238.792 100.847C238.793 100.929 238.763 100.998 238.705 101.052C238.65 101.111 238.582 101.14 238.5 101.14ZM241.043 101.138C240.961 101.138 240.89 101.109 240.832 101.05C240.777 100.996 240.75 100.927 240.749 100.845C240.749 100.763 240.777 100.695 240.831 100.64C240.89 100.582 240.96 100.552 241.042 100.552C241.124 100.552 241.193 100.581 241.247 100.64C241.306 100.694 241.335 100.763 241.335 100.845C241.335 100.927 241.306 100.995 241.248 101.05C241.193 101.109 241.125 101.138 241.043 101.138ZM243.586 101.136C243.504 101.136 243.433 101.106 243.375 101.048C243.32 100.993 243.293 100.925 243.292 100.843C243.292 100.761 243.32 100.693 243.374 100.638C243.433 100.579 243.503 100.55 243.585 100.55C243.667 100.55 243.736 100.579 243.79 100.637C243.849 100.692 243.878 100.76 243.878 100.842C243.878 100.924 243.849 100.993 243.791 101.048C243.736 101.106 243.668 101.136 243.586 101.136Z" fill="black"/>
<defs>
<filter id="filter0_dd_123_2" x="69.0611" y="59.8625" width="393.356" height="465.289" filterUnits="userSpaceOnUse" color-interpolation-filters="sRGB">
<feFlood flood-opacity="0" result="BackgroundImageFix"/>
<feColorMatrix in="SourceAlpha" type="matrix" values="0 0 0 0 0 0 0 0 0 0 0 0 0 0 0 0 0 0 127 0" result="hardAlpha"/>
<feOffset dy="4"/>
<feGaussianBlur stdDeviation="2"/>
<feComposite in2="hardAlpha" operator="out"/>
<feColorMatrix type="matrix" values="0 0 0 0 0 0 0 0 0 0 0 0 0 0 0 0 0 0 0.25 0"/>
<feBlend mode="normal" in2="BackgroundImageFix" result="effect1_dropShadow_123_2"/>
<feColorMatrix in="SourceAlpha" type="matrix" values="0 0 0 0 0 0 0 0 0 0 0 0 0 0 0 0 0 0 127 0" result="hardAlpha"/>
<feOffset dx="10" dy="15"/>
<feGaussianBlur stdDeviation="12.5"/>
<feComposite in2="hardAlpha" operator="out"/>
<feColorMatrix type="matrix" values="0 0 0 0 0 0 0 0 0 0 0 0 0 0 0 0 0 0 0.2 0"/>
<feBlend mode="normal" in2="effect1_dropShadow_123_2" result="effect2_dropShadow_123_2"/>
<feBlend mode="normal" in="SourceGraphic" in2="effect2_dropShadow_123_2" result="shape"/>
</filter>
</defs>
</svg>
