<svg width="501" height="351" viewBox="0 0 501 351" fill="none" xmlns="http://www.w3.org/2000/svg">
<g filter="url(#filter0_dd_127_469)">
<path d="M46.7394 47.1424C46.7351 42.5353 50.4665 38.7971 55.0736 38.7928L229.141 38.6318C233.748 38.6276 237.486 42.3589 237.491 46.966L237.689 261.075C237.693 265.682 233.962 269.42 229.355 269.424L55.2871 269.585C50.68 269.59 46.9417 265.858 46.9374 261.251L46.7394 47.1424Z" fill="white"/>
<path d="M229.354 268.868L229.355 269.424L55.287 269.585L55.2865 269.029L229.354 268.868ZM237.133 261.075L236.935 46.9665C236.931 42.6666 233.442 39.184 229.142 39.188L55.0741 39.3489C50.7741 39.3529 47.2916 42.842 47.2955 47.1419L47.4936 261.251C47.4975 265.551 50.9866 269.033 55.2865 269.029L55.287 269.585C50.6799 269.59 46.9417 265.858 46.9374 261.251L46.7394 47.1424C46.7351 42.5353 50.4665 38.7971 55.0736 38.7928L229.141 38.6318L229.356 38.6343C233.864 38.7442 237.487 42.4308 237.491 46.966L237.689 261.075C237.693 265.61 234.077 269.303 229.57 269.421L229.355 269.424L229.354 268.868C233.654 268.864 237.137 265.375 237.133 261.075Z" fill="black"/>
<path d="M229.16 58.5133L229.16 59.0695L71.22 59.2156L71.2195 58.6594L229.16 58.5133Z" fill="#DDDDDD"/>
<path d="M229.171 69.7748L229.171 70.3309L71.2307 70.477L71.2302 69.9209L229.171 69.7748Z" fill="#DDDDDD"/>
<path d="M229.181 80.8974L229.181 81.4535L71.241 81.5996L71.2405 81.0435L229.181 80.8974Z" fill="#DDDDDD"/>
<path d="M229.181 80.8974L229.181 81.4535L71.241 81.5996L71.2405 81.0435L229.181 80.8974Z" fill="#DDDDDD"/>
<path d="M229.191 92.0199L229.192 92.5761L71.2512 92.7221L71.2507 92.166L229.191 92.0199Z" fill="#DDDDDD"/>
<path d="M229.201 103.142L229.202 103.699L71.2615 103.845L71.261 103.289L229.201 103.142Z" fill="#DDDDDD"/>
<path d="M229.212 114.265L229.212 114.821L71.2718 114.967L71.2712 114.411L229.212 114.265Z" fill="#DDDDDD"/>
<path d="M229.222 125.527L229.223 126.083L71.2823 126.229L71.2817 125.673L229.222 125.527Z" fill="#DDDDDD"/>
<path d="M229.232 136.649L229.233 137.205L71.2925 137.351L71.292 136.795L229.232 136.649Z" fill="#DDDDDD"/>
<path d="M229.232 136.649L229.233 137.205L71.2925 137.351L71.292 136.795L229.232 136.649Z" fill="#DDDDDD"/>
<path d="M229.243 147.772L229.243 148.328L71.3028 148.474L71.3022 147.918L229.243 147.772Z" fill="#DDDDDD"/>
<path d="M229.253 158.894L229.253 159.45L71.313 159.596L71.3125 159.04L229.253 158.894Z" fill="#DDDDDD"/>
<path d="M229.263 169.878L229.264 170.434L71.3233 170.58L71.3228 170.024L229.263 169.878Z" fill="#DDDDDD"/>
<path d="M229.274 181.139L229.274 181.695L71.3338 181.842L71.3333 181.285L229.274 181.139Z" fill="#DDDDDD"/>
<path d="M229.284 192.262L229.284 192.818L71.344 192.964L71.3435 192.408L229.284 192.262Z" fill="#DDDDDD"/>
<path d="M229.284 192.262L229.284 192.818L71.344 192.964L71.3435 192.408L229.284 192.262Z" fill="#DDDDDD"/>
<path d="M229.294 203.384L229.295 203.941L71.3543 204.087L71.3538 203.531L229.294 203.384Z" fill="#DDDDDD"/>
<path d="M229.304 214.507L229.305 215.063L71.3645 215.209L71.364 214.653L229.304 214.507Z" fill="#DDDDDD"/>
<path d="M229.314 225.49L229.315 226.047L71.3745 226.193L71.374 225.636L229.314 225.49Z" fill="#DDDDDD"/>
<path d="M229.325 236.752L229.325 237.308L71.385 237.454L71.3845 236.898L229.325 236.752Z" fill="#DDDDDD"/>
<path d="M229.335 247.874L229.336 248.431L71.3953 248.577L71.3948 248.021L229.335 247.874Z" fill="#DDDDDD"/>
<path d="M229.335 247.874L229.336 248.431L71.3953 248.577L71.3948 248.021L229.335 247.874Z" fill="#DDDDDD"/>
<path d="M229.346 258.997L229.346 259.553L71.4058 259.699L71.4053 259.143L229.346 258.997Z" fill="#DDDDDD"/>
<path d="M66.2308 76.3209C66.2329 78.6245 64.3672 80.4936 62.0637 80.4958C59.7601 80.4979 57.891 78.6322 57.8889 76.3287C57.8867 74.0251 59.7524 72.156 62.056 72.1539C64.3595 72.1517 66.2286 74.0174 66.2308 76.3209Z" fill="white"/>
<path d="M65.6746 76.3215C65.6728 74.3251 64.0529 72.7081 62.0565 72.71C60.0601 72.7118 58.4431 74.3317 58.445 76.3281C58.4468 78.3246 60.0667 79.9415 62.0632 79.9396L62.0637 80.4958C59.7601 80.4979 57.891 78.6322 57.8889 76.3287C57.8867 74.0251 59.7524 72.156 62.056 72.1539C64.3595 72.1517 66.2286 74.0174 66.2308 76.3209C66.2329 78.6245 64.3672 80.4936 62.0637 80.4958L62.0632 79.9396C64.0596 79.9378 65.6765 78.3179 65.6746 76.3215Z" fill="black"/>
<path d="M66.2308 76.3209C66.2329 78.6245 64.3672 80.4936 62.0637 80.4958C59.7601 80.4979 57.891 78.6322 57.8889 76.3287C57.8867 74.0251 59.7524 72.156 62.056 72.1539C64.3595 72.1517 66.2286 74.0174 66.2308 76.3209Z" fill="white"/>
<path d="M65.6746 76.3215C65.6728 74.3251 64.0529 72.7081 62.0565 72.71C60.0601 72.7118 58.4431 74.3317 58.445 76.3281C58.4468 78.3246 60.0667 79.9415 62.0632 79.9396L62.0637 80.4958C59.7601 80.4979 57.891 78.6322 57.8889 76.3287C57.8867 74.0251 59.7524 72.156 62.056 72.1539C64.3595 72.1517 66.2286 74.0174 66.2308 76.3209C66.2329 78.6245 64.3672 80.4936 62.0637 80.4958L62.0632 79.9396C64.0596 79.9378 65.6765 78.3179 65.6746 76.3215Z" fill="black"/>
<path d="M66.303 154.179C66.3052 156.482 64.4395 158.352 62.1359 158.354C59.8324 158.356 57.9633 156.49 57.9611 154.187C57.959 151.883 59.8247 150.014 62.1282 150.012C64.4318 150.01 66.3009 151.875 66.303 154.179Z" fill="white"/>
<path d="M65.7469 154.179C65.7451 152.183 64.1251 150.566 62.1287 150.568C60.1323 150.57 58.5154 152.19 58.5173 154.186C58.5191 156.182 60.139 157.799 62.1354 157.798L62.1359 158.354C59.8324 158.356 57.9633 156.49 57.9611 154.187C57.959 151.883 59.8247 150.014 62.1282 150.012C64.4318 150.01 66.3009 151.875 66.303 154.179C66.3052 156.482 64.4395 158.352 62.1359 158.354L62.1354 157.798C64.1318 157.796 65.7487 156.176 65.7469 154.179Z" fill="black"/>
<path d="M66.375 232.036C66.3772 234.34 64.5115 236.209 62.208 236.211C59.9044 236.213 58.0353 234.348 58.0332 232.044C58.031 229.74 59.8967 227.871 62.2002 227.869C64.5038 227.867 66.3729 229.733 66.375 232.036Z" fill="white"/>
<path d="M65.8189 232.037C65.8171 230.04 64.1972 228.423 62.2008 228.425C60.2043 228.427 58.5874 230.047 58.5893 232.043C58.5911 234.04 60.211 235.657 62.2074 235.655L62.208 236.211C59.9044 236.213 58.0353 234.348 58.0332 232.044C58.031 229.74 59.8967 227.871 62.2002 227.869C64.5038 227.867 66.3729 229.733 66.375 232.036C66.3772 234.34 64.5115 236.209 62.208 236.211L62.2074 235.655C64.2039 235.653 65.8208 234.033 65.8189 232.037Z" fill="black"/>
<path d="M229.16 58.5133L229.16 59.0695L71.22 59.2156L71.2195 58.6594L229.16 58.5133Z" fill="#DDDDDD"/>
<path d="M229.171 69.7748L229.171 70.3309L71.2307 70.477L71.2302 69.9209L229.171 69.7748Z" fill="#DDDDDD"/>
<path d="M229.181 80.8974L229.181 81.4535L71.241 81.5996L71.2405 81.0435L229.181 80.8974Z" fill="#DDDDDD"/>
<path d="M229.181 80.8974L229.181 81.4535L71.241 81.5996L71.2405 81.0435L229.181 80.8974Z" fill="#DDDDDD"/>
<path d="M229.191 92.0199L229.192 92.5761L71.2512 92.7221L71.2507 92.166L229.191 92.0199Z" fill="#DDDDDD"/>
<path d="M229.201 103.142L229.202 103.699L71.2615 103.845L71.261 103.289L229.201 103.142Z" fill="#DDDDDD"/>
</g>
<path d="M68.2726 56.4278L68.4189 56.2226C68.6534 56.4177 68.8997 56.5835 69.1576 56.72C69.4156 56.8526 69.6832 56.9539 69.9606 57.0239C70.242 57.0901 70.5271 57.123 70.8162 57.1228C71.3045 57.1223 71.736 57.0301 72.1109 56.8462C72.4896 56.6583 72.7843 56.4022 72.9949 56.0778C73.2095 55.7494 73.3165 55.3743 73.3162 54.9525C73.3157 54.5072 73.2041 54.1459 72.9812 53.8688C72.7583 53.5878 72.4729 53.3556 72.1251 53.1723C71.7772 52.9851 71.4118 52.8117 71.0289 52.6518C70.7436 52.531 70.4642 52.4043 70.1906 52.2718C69.9171 52.1392 69.6689 51.9871 69.4461 51.8154C69.2272 51.6398 69.0531 51.433 68.924 51.1948C68.7949 50.9566 68.7302 50.6696 68.7298 50.3337C68.7295 49.9157 68.8326 49.5484 69.0394 49.2318C69.2461 48.9152 69.535 48.6689 69.9059 48.4927C70.2807 48.3166 70.7123 48.2283 71.2006 48.2279C71.5248 48.2276 71.8393 48.2683 72.144 48.35C72.4527 48.4279 72.7419 48.5448 73.0115 48.7008L72.877 48.9294C72.6073 48.7812 72.3279 48.6682 72.0388 48.5904C71.7497 48.5125 71.4606 48.4737 71.1715 48.474C70.7457 48.4744 70.3688 48.5528 70.0408 48.7094C69.7168 48.866 69.4611 49.0849 69.2739 49.3664C69.0866 49.6439 68.9932 49.9662 68.9935 50.3334C68.9939 50.728 69.0977 51.0521 69.305 51.3058C69.5161 51.5595 69.7859 51.7741 70.1142 51.9496C70.4463 52.1211 70.7961 52.2849 71.1634 52.4408C71.4604 52.5655 71.7516 52.6981 72.0369 52.8384C72.3221 52.9788 72.5801 53.1426 72.8107 53.3299C73.0453 53.5133 73.231 53.7358 73.368 53.9973C73.5089 54.255 73.5795 54.5694 73.5798 54.9405C73.5803 55.4132 73.4635 55.8332 73.2294 56.2006C72.9954 56.5641 72.6714 56.8496 72.2576 57.057C71.8476 57.2644 71.375 57.3683 70.8399 57.3688C70.3789 57.3692 69.9277 57.2896 69.4861 57.1298C69.0485 56.9662 68.644 56.7322 68.2726 56.4278ZM77.9824 57.3036C77.416 57.3041 76.9061 57.1718 76.4527 56.9066C76.0033 56.6375 75.6455 56.2745 75.3795 55.8177C75.1173 55.3571 74.986 54.8376 74.9854 54.2595C74.9849 53.6814 75.1153 53.1637 75.3766 52.7064C75.6418 52.2452 75.9989 51.8816 76.4478 51.6156C76.9007 51.3456 77.4104 51.2104 77.9768 51.2099C78.5432 51.2094 79.0511 51.3436 79.5006 51.6128C79.95 51.878 80.3058 52.2409 80.568 52.7016C80.8301 53.1584 80.9615 53.6759 80.962 54.254C80.9625 54.8282 80.8321 55.3459 80.5709 55.8071C80.3096 56.2683 79.9544 56.6338 79.5055 56.9038C79.0565 57.1698 78.5488 57.3031 77.9824 57.3036ZM77.9822 57.081C78.5017 57.0805 78.9664 56.957 79.3764 56.7105C79.7902 56.4602 80.1161 56.122 80.354 55.696C80.5957 55.27 80.7164 54.7894 80.7159 54.2542C80.7154 53.7191 80.5939 53.2387 80.3513 52.8131C80.1126 52.3876 79.7861 52.052 79.3718 51.8062C78.9615 51.5566 78.4965 51.4321 77.977 51.4325C77.4574 51.433 76.9888 51.5584 76.5711 51.8088C76.1572 52.0553 75.8294 52.3916 75.5876 52.8176C75.3497 53.2436 75.231 53.7241 75.2315 54.2593C75.232 54.7944 75.3516 55.2748 75.5903 55.7004C75.8329 56.1259 76.1613 56.4635 76.5756 56.7131C76.9938 56.9588 77.4627 57.0814 77.9822 57.081ZM91.6815 57.1738L91.4413 57.174L91.4382 53.8752C91.4375 53.1056 91.2553 52.5042 90.8916 52.071C90.5279 51.6377 90.0238 51.4214 89.3793 51.422C88.7309 51.4226 88.2194 51.6438 87.8448 52.0855C87.4741 52.5234 87.2891 53.1212 87.2898 53.879L87.2928 57.1778L87.0526 57.178L87.0495 53.8792C87.0488 53.1097 86.8666 52.5083 86.503 52.075C86.1432 51.6418 85.641 51.4254 84.9965 51.426C84.3481 51.4266 83.8365 51.6478 83.4619 52.0896C83.0874 52.5274 82.9004 53.1252 82.9011 53.8831L82.9042 57.1819L82.6639 57.1821L82.6585 51.3227L82.8812 51.3225L82.8941 52.6936C83.0656 52.2052 83.3309 51.8358 83.69 51.5855C84.053 51.3312 84.4943 51.2038 85.0139 51.2034C85.5881 51.2028 86.0628 51.3567 86.4381 51.6649C86.8134 51.9732 87.0658 52.4124 87.1952 52.9826C87.3431 52.4004 87.6044 51.9588 87.9791 51.6577C88.3578 51.3526 88.8322 51.1998 89.4025 51.1993C90.1174 51.1986 90.6742 51.4345 91.0731 51.9067C91.4759 52.3751 91.6777 53.0312 91.6784 53.8749L91.6815 57.1738ZM98.7765 56.4113C98.0739 56.994 97.2832 57.2858 96.4043 57.2866C95.8105 57.2871 95.2811 57.1548 94.816 56.8896C94.3509 56.6244 93.9853 56.2595 93.7193 55.7949C93.4571 55.3303 93.3258 54.7992 93.3252 54.2015C93.3247 53.6195 93.4492 53.1018 93.6988 52.6485C93.9484 52.1951 94.2918 51.8393 94.7291 51.5811C95.1663 51.3229 95.6642 51.1935 96.2228 51.193C96.7736 51.1925 97.2601 51.317 97.6822 51.5667C98.1043 51.8163 98.4347 52.1617 98.6734 52.6028C98.9121 53.0401 99.0317 53.5459 99.0322 54.1201L99.0323 54.2842L93.5714 54.2892C93.5719 54.8283 93.6954 55.3067 93.9419 55.7244C94.1923 56.1421 94.5305 56.47 94.9565 56.7078C95.3825 56.9457 95.8611 57.0644 96.3923 57.0639C97.2048 57.0632 97.9546 56.7852 98.6416 56.2298L98.7765 56.4113ZM93.5712 54.0665L98.8153 54.0617C98.7992 53.5383 98.6797 53.0794 98.4566 52.6851C98.2336 52.2868 97.9306 51.9766 97.5476 51.7543C97.1646 51.5281 96.723 51.4152 96.223 51.4157C95.723 51.4161 95.2759 51.5298 94.8816 51.7567C94.4872 51.9837 94.175 52.2965 93.9449 52.6951C93.7148 53.0899 93.5903 53.547 93.5712 54.0665ZM103.33 57.0399C103.029 57.2004 102.725 57.2807 102.416 57.281C102.143 57.2813 101.904 57.221 101.701 57.1C101.498 56.9752 101.339 56.7996 101.226 56.5731C101.112 56.3467 101.055 56.0831 101.055 55.7823L101.051 51.5284L100.026 51.5293L100.026 51.3067L101.051 51.3057L101.05 49.8409L101.29 49.8407L101.291 51.3055L103.166 51.3038L103.167 51.5264L101.292 51.5282L101.295 55.741C101.296 56.1395 101.4 56.4597 101.607 56.7017C101.814 56.9398 102.09 57.0587 102.433 57.0584C102.691 57.0581 102.959 56.9836 103.236 56.835L103.33 57.0399ZM104.976 57.1615L104.968 48.3724L105.209 48.3722L105.213 52.6964C105.594 51.6882 106.369 51.1836 107.537 51.1825C108.319 51.1818 108.928 51.4176 109.366 51.8898C109.804 52.3582 110.023 53.0142 110.024 53.858L110.027 57.1568L109.787 57.157L109.784 53.8582C109.783 53.0887 109.583 52.4873 109.185 52.0541C108.786 51.6208 108.231 51.4046 107.52 51.4052C106.809 51.4059 106.247 51.6271 105.833 52.0689C105.419 52.5068 105.213 53.1046 105.214 53.8624L105.217 57.1612L104.976 57.1615ZM112.299 48.8344C112.217 48.8345 112.148 48.8052 112.094 48.7467C112.039 48.6881 112.011 48.6178 112.011 48.5358C112.011 48.4577 112.039 48.3913 112.093 48.3365C112.148 48.2779 112.216 48.2485 112.298 48.2484C112.38 48.2484 112.451 48.2776 112.509 48.3361C112.568 48.3908 112.597 48.4591 112.597 48.5411C112.597 48.6232 112.568 48.6935 112.51 48.7522C112.451 48.8069 112.381 48.8343 112.299 48.8344ZM112.43 57.1546L112.189 57.1548L112.184 51.2954L112.424 51.2952L112.43 57.1546ZM119.765 57.1478L119.525 57.148L119.522 53.8492C119.521 53.0797 119.322 52.4783 118.923 52.0451C118.524 51.6118 117.971 51.3955 117.264 51.3962C116.787 51.3966 116.375 51.4966 116.028 51.6962C115.684 51.8957 115.419 52.1792 115.232 52.5465C115.045 52.91 114.951 53.3456 114.952 53.8534L114.955 57.1522L114.715 57.1525L114.709 51.2931L114.95 51.2929L114.951 52.6991C115.134 52.1989 115.423 51.8198 115.817 51.5616C116.211 51.3034 116.695 51.1741 117.27 51.1735C118.055 51.1728 118.666 51.4086 119.104 51.8808C119.542 52.3492 119.762 53.0052 119.762 53.849L119.765 57.1478ZM124.201 57.0265C123.662 57.027 123.177 56.8985 122.747 56.6411C122.317 56.3837 121.975 56.0344 121.721 55.5932C121.471 55.1521 121.345 54.6541 121.345 54.0995C121.344 53.5448 121.469 53.0466 121.718 52.605C121.972 52.1633 122.313 51.8134 122.743 51.5552C123.176 51.297 123.664 51.1676 124.207 51.1671C124.817 51.1666 125.356 51.3301 125.825 51.6578C126.294 51.9816 126.634 52.409 126.846 52.9401L126.844 51.2819L127.078 51.2816L127.084 57.0063C127.084 57.6703 126.968 58.2407 126.734 58.7175C126.504 59.1943 126.168 59.5579 125.727 59.8083C125.29 60.0626 124.76 60.19 124.139 60.1906C123.241 60.1915 122.495 59.8777 121.9 59.2493L122.07 59.0793C122.625 59.6725 123.331 59.9687 124.186 59.9679C124.741 59.9674 125.215 59.8478 125.61 59.6092C126.008 59.3744 126.312 59.0382 126.523 58.6005C126.737 58.1628 126.844 57.6393 126.843 57.0299L126.842 55.2604C126.631 55.7918 126.29 56.2199 125.818 56.5445C125.349 56.8653 124.81 57.0259 124.201 57.0265ZM124.212 56.8038C124.689 56.8034 125.119 56.6956 125.501 56.4804C125.884 56.2652 126.194 55.97 126.432 55.5947C126.67 55.2195 126.806 54.7936 126.841 54.317L126.841 53.8717C126.805 53.3952 126.668 52.9695 126.429 52.5947C126.195 52.22 125.886 51.9253 125.503 51.7108C125.124 51.4963 124.696 51.3893 124.219 51.3898C123.723 51.3902 123.276 51.5098 122.878 51.7484C122.479 51.9832 122.165 52.3057 121.935 52.7161C121.705 53.1226 121.59 53.5836 121.591 54.0992C121.591 54.6109 121.707 55.0718 121.938 55.4817C122.169 55.8917 122.481 56.2156 122.876 56.4535C123.271 56.6875 123.716 56.8043 124.212 56.8038ZM137.121 57.1317L136.892 57.1319L136.891 55.7316C136.708 56.2239 136.423 56.6011 136.037 56.8632C135.65 57.1214 135.178 57.2507 134.619 57.2512C133.853 57.2519 133.256 57.0181 132.825 56.5498C132.399 56.0775 132.186 55.4195 132.185 54.5758L132.182 51.2769L132.422 51.2767L132.425 54.5755C132.426 55.3451 132.62 55.9464 133.007 56.3797C133.398 56.8129 133.939 57.0292 134.631 57.0286C135.326 57.0279 135.875 56.8087 136.276 56.3708C136.678 55.929 136.879 55.3292 136.878 54.5714L136.875 51.2726L137.116 51.2724L137.121 57.1317ZM138.878 56.6145L139.013 56.421C139.165 56.5498 139.326 56.659 139.494 56.7487C139.666 56.8384 139.843 56.9066 140.027 56.9533C140.211 57 140.396 57.0232 140.584 57.0231C141.056 57.0226 141.445 56.8895 141.749 56.6236C142.054 56.3537 142.206 56.0098 142.205 55.5919C142.205 55.295 142.131 55.0548 141.982 54.8714C141.837 54.6879 141.648 54.5358 141.413 54.4149C141.183 54.294 140.94 54.1809 140.686 54.0757C140.432 53.9666 140.188 53.8516 139.954 53.7307C139.719 53.6098 139.528 53.4557 139.379 53.2683C139.23 53.0771 139.156 52.831 139.156 52.5302C139.155 52.249 139.222 52.0067 139.354 51.8035C139.491 51.5963 139.682 51.436 139.928 51.3225C140.178 51.209 140.469 51.1521 140.801 51.1518C141.235 51.1514 141.658 51.2486 142.073 51.4436L141.973 51.6546C141.868 51.5961 141.751 51.5474 141.622 51.5084C141.493 51.4656 141.358 51.4325 141.217 51.4092C141.08 51.3859 140.946 51.3743 140.813 51.3744C140.395 51.3748 140.055 51.4825 139.794 51.6976C139.532 51.9088 139.402 52.1863 139.402 52.53C139.402 52.78 139.469 52.987 139.602 53.1509C139.738 53.3149 139.914 53.4534 140.129 53.5665C140.348 53.6756 140.577 53.7809 140.815 53.8822C141.081 53.9953 141.339 54.12 141.589 54.2565C141.839 54.3891 142.044 54.5608 142.205 54.7716C142.369 54.9824 142.451 55.2577 142.452 55.5975C142.452 55.9217 142.372 56.2089 142.212 56.4591C142.056 56.7053 141.839 56.8989 141.562 57.0397C141.285 57.1767 140.963 57.2454 140.596 57.2457C139.963 57.2463 139.39 57.0359 138.878 56.6145ZM149.191 56.3647C148.488 56.9474 147.697 57.2391 146.818 57.24C146.225 57.2405 145.695 57.1082 145.23 56.843C144.765 56.5778 144.399 56.2129 144.133 55.7483C143.871 55.2837 143.74 54.7526 143.739 54.1549C143.739 53.5729 143.863 53.0552 144.113 52.6018C144.362 52.1485 144.706 51.7927 145.143 51.5345C145.58 51.2763 146.078 51.1469 146.637 51.1464C147.188 51.1459 147.674 51.2704 148.096 51.52C148.518 51.7696 148.849 52.115 149.087 52.5562C149.326 52.9935 149.446 53.4992 149.446 54.0735L149.446 54.2375L143.985 54.2426C143.986 54.7816 144.109 55.26 144.356 55.6778C144.606 56.0955 144.944 56.4233 145.37 56.6612C145.796 56.8991 146.275 57.0178 146.806 57.0173C147.619 57.0166 148.369 56.7385 149.056 56.1832L149.191 56.3647ZM143.985 54.0199L149.229 54.0151C149.213 53.4916 149.094 53.0328 148.871 52.6384C148.648 52.2402 148.345 51.9299 147.962 51.7076C147.579 51.4814 147.137 51.3686 146.637 51.369C146.137 51.3695 145.69 51.4832 145.296 51.7101C144.901 51.937 144.589 52.2498 144.359 52.6485C144.129 53.0432 144.004 53.5004 143.985 54.0199ZM151.828 57.1181L151.588 57.1184L151.583 51.4816L150.557 51.4826L150.557 51.2599L151.582 51.259L151.581 49.6535C151.581 49.3488 151.637 49.0851 151.75 48.8623C151.863 48.6357 152.021 48.4617 152.224 48.3404C152.427 48.2152 152.665 48.1525 152.939 48.1523C153.087 48.1521 153.24 48.1735 153.396 48.2163C153.552 48.2552 153.705 48.3137 153.853 48.3916L153.76 48.5968C153.623 48.5227 153.486 48.4682 153.349 48.4331C153.216 48.3942 153.085 48.3748 152.957 48.3749C152.613 48.3752 152.338 48.4966 152.131 48.7389C151.924 48.9774 151.821 49.2959 151.821 49.6943L151.823 51.2588L153.698 51.257L153.698 51.4797L151.823 51.4814L151.828 57.1181ZM160.265 57.1103L160.037 57.1105L160.036 55.7102C159.853 56.2025 159.568 56.5797 159.181 56.8418C158.795 57.1 158.322 57.2293 157.764 57.2298C156.998 57.2305 156.4 56.9967 155.97 56.5284C155.544 56.0561 155.33 55.3981 155.329 54.5543L155.326 51.2555L155.567 51.2553L155.57 54.5541C155.57 55.3237 155.764 55.925 156.151 56.3583C156.542 56.7915 157.084 57.0078 157.775 57.0072C158.47 57.0065 159.019 56.7873 159.421 56.3494C159.823 55.9076 160.024 55.3078 160.023 54.55L160.02 51.2512L160.26 51.251L160.265 57.1103ZM162.668 57.1081L162.433 57.1083L162.425 48.3193L162.66 48.3191L162.668 57.1081ZM165.023 57.2231C164.941 57.2232 164.871 57.194 164.812 57.1354C164.758 57.0808 164.73 57.0125 164.73 56.9304C164.73 56.8484 164.757 56.78 164.812 56.7253C164.871 56.6666 164.941 56.6373 165.023 56.6372C165.105 56.6371 165.173 56.6663 165.228 56.7249C165.287 56.7795 165.316 56.8478 165.316 56.9299C165.316 57.0119 165.287 57.0803 165.228 57.135C165.174 57.1937 165.105 57.223 165.023 57.2231ZM167.566 57.2208C167.484 57.2208 167.414 57.1916 167.355 57.1331C167.301 57.0784 167.273 57.0101 167.273 56.9281C167.273 56.846 167.3 56.7777 167.355 56.7229C167.413 56.6643 167.484 56.6349 167.566 56.6348C167.648 56.6348 167.716 56.664 167.771 56.7225C167.83 56.7772 167.859 56.8455 167.859 56.9275C167.859 57.0096 167.83 57.0779 167.771 57.1327C167.717 57.1913 167.648 57.2207 167.566 57.2208ZM170.109 57.2184C170.027 57.2185 169.957 57.1893 169.898 57.1307C169.844 57.0761 169.816 57.0077 169.816 56.9257C169.816 56.8437 169.843 56.7753 169.898 56.7206C169.956 56.6619 170.027 56.6326 170.109 56.6325C170.191 56.6324 170.259 56.6616 170.314 56.7202C170.373 56.7748 170.402 56.8431 170.402 56.9252C170.402 57.0072 170.373 57.0756 170.314 57.1303C170.26 57.189 170.191 57.2183 170.109 57.2184Z" fill="black"/>
<g filter="url(#filter1_dd_127_469)">
<path d="M148.739 64.1422C148.735 59.5351 152.466 55.7968 157.074 55.7926L331.141 55.6316C335.748 55.6273 339.486 59.3587 339.491 63.9658L339.689 278.074C339.693 282.682 335.962 286.42 331.355 286.424L157.287 286.585C152.68 286.589 148.942 282.858 148.937 278.251L148.739 64.1422Z" fill="white"/>
<path d="M331.354 285.868L331.355 286.424L157.287 286.585L157.287 286.029L331.354 285.868ZM339.133 278.075L338.935 63.9663C338.931 59.6663 335.442 56.1837 331.142 56.1877L157.074 56.3487C152.774 56.3527 149.292 59.8417 149.296 64.1417L149.494 278.25C149.498 282.55 152.987 286.033 157.287 286.029L157.287 286.585C152.68 286.589 148.942 282.858 148.937 278.251L148.739 64.1422C148.735 59.5351 152.466 55.7968 157.074 55.7926L331.141 55.6316L331.356 55.6341C335.864 55.744 339.487 59.4306 339.491 63.9658L339.689 278.074C339.693 282.61 336.077 286.303 331.57 286.421L331.355 286.424L331.354 285.868C335.654 285.864 339.137 282.375 339.133 278.075Z" fill="black"/>
<path d="M331.16 75.5131L331.16 76.0692L173.22 76.2153L173.219 75.6592L331.16 75.5131Z" fill="#DDDDDD"/>
<path d="M331.17 86.7748L331.171 87.3309L173.23 87.477L173.23 86.9209L331.17 86.7748Z" fill="#DDDDDD"/>
<path d="M331.181 97.8971L331.181 98.4533L173.241 98.5993L173.24 98.0432L331.181 97.8971Z" fill="#DDDDDD"/>
<path d="M331.181 97.8971L331.181 98.4533L173.241 98.5993L173.24 98.0432L331.181 97.8971Z" fill="#DDDDDD"/>
<path d="M331.191 109.02L331.192 109.576L173.251 109.722L173.251 109.166L331.191 109.02Z" fill="#DDDDDD"/>
<path d="M331.201 120.142L331.202 120.698L173.262 120.844L173.261 120.288L331.201 120.142Z" fill="#DDDDDD"/>
<path d="M331.212 131.265L331.212 131.821L173.272 131.967L173.271 131.411L331.212 131.265Z" fill="#DDDDDD"/>
<path d="M331.222 142.526L331.223 143.082L173.282 143.228L173.282 142.672L331.222 142.526Z" fill="#DDDDDD"/>
<path d="M331.232 153.649L331.233 154.205L173.293 154.351L173.292 153.795L331.232 153.649Z" fill="#DDDDDD"/>
<path d="M331.232 153.649L331.233 154.205L173.293 154.351L173.292 153.795L331.232 153.649Z" fill="#DDDDDD"/>
<path d="M331.243 164.771L331.243 165.328L173.303 165.474L173.302 164.917L331.243 164.771Z" fill="#DDDDDD"/>
<path d="M331.253 175.894L331.253 176.45L173.313 176.596L173.312 176.04L331.253 175.894Z" fill="#DDDDDD"/>
<path d="M331.263 186.877L331.263 187.433L173.323 187.58L173.323 187.023L331.263 186.877Z" fill="#DDDDDD"/>
<path d="M331.274 198.139L331.274 198.695L173.334 198.841L173.333 198.285L331.274 198.139Z" fill="#DDDDDD"/>
<path d="M331.284 209.261L331.284 209.818L173.344 209.964L173.344 209.407L331.284 209.261Z" fill="#DDDDDD"/>
<path d="M331.284 209.261L331.284 209.818L173.344 209.964L173.344 209.407L331.284 209.261Z" fill="#DDDDDD"/>
<path d="M331.294 220.384L331.295 220.94L173.354 221.086L173.354 220.53L331.294 220.384Z" fill="#DDDDDD"/>
<path d="M331.304 231.507L331.305 232.063L173.365 232.209L173.364 231.653L331.304 231.507Z" fill="#DDDDDD"/>
<path d="M331.314 242.49L331.315 243.046L173.375 243.192L173.374 242.636L331.314 242.49Z" fill="#DDDDDD"/>
<path d="M331.325 253.752L331.325 254.308L173.385 254.454L173.385 253.898L331.325 253.752Z" fill="#DDDDDD"/>
<path d="M331.335 264.874L331.336 265.43L173.395 265.576L173.395 265.02L331.335 264.874Z" fill="#DDDDDD"/>
<path d="M331.335 264.874L331.336 265.43L173.395 265.576L173.395 265.02L331.335 264.874Z" fill="#DDDDDD"/>
<path d="M331.345 275.996L331.346 276.553L173.406 276.699L173.405 276.143L331.345 275.996Z" fill="#DDDDDD"/>
<path d="M168.231 93.3207C168.233 95.6243 166.367 97.4934 164.064 97.4955C161.76 97.4976 159.891 95.632 159.889 93.3284C159.887 91.0249 161.752 89.1557 164.056 89.1536C166.36 89.1515 168.229 91.0172 168.231 93.3207Z" fill="white"/>
<path d="M167.675 93.3212C167.673 91.3248 166.053 89.7079 164.056 89.7097C162.06 89.7116 160.443 91.3315 160.445 93.3279C160.447 95.3243 162.067 96.9412 164.063 96.9394L164.064 97.4955C161.76 97.4976 159.891 95.632 159.889 93.3284C159.887 91.0249 161.752 89.1557 164.056 89.1536C166.36 89.1515 168.229 91.0172 168.231 93.3207C168.233 95.6243 166.367 97.4934 164.064 97.4955L164.063 96.9394C166.06 96.9375 167.676 95.3176 167.675 93.3212Z" fill="black"/>
<path d="M168.231 93.3207C168.233 95.6243 166.367 97.4934 164.064 97.4955C161.76 97.4976 159.891 95.632 159.889 93.3284C159.887 91.0249 161.752 89.1557 164.056 89.1536C166.36 89.1515 168.229 91.0172 168.231 93.3207Z" fill="white"/>
<path d="M167.675 93.3212C167.673 91.3248 166.053 89.7079 164.056 89.7097C162.06 89.7116 160.443 91.3315 160.445 93.3279C160.447 95.3243 162.067 96.9412 164.063 96.9394L164.064 97.4955C161.76 97.4976 159.891 95.632 159.889 93.3284C159.887 91.0249 161.752 89.1557 164.056 89.1536C166.36 89.1515 168.229 91.0172 168.231 93.3207C168.233 95.6243 166.367 97.4934 164.064 97.4955L164.063 96.9394C166.06 96.9375 167.676 95.3176 167.675 93.3212Z" fill="black"/>
<path d="M168.303 171.179C168.305 173.482 166.439 175.351 164.136 175.353C161.832 175.356 159.963 173.49 159.961 171.186C159.959 168.883 161.825 167.014 164.128 167.012C166.432 167.009 168.301 168.875 168.303 171.179Z" fill="white"/>
<path d="M167.747 171.179C167.745 169.183 166.125 167.566 164.129 167.568C162.132 167.569 160.515 169.189 160.517 171.186C160.519 173.182 162.139 174.799 164.135 174.797L164.136 175.353C161.832 175.356 159.963 173.49 159.961 171.186C159.959 168.883 161.825 167.014 164.128 167.012C166.432 167.009 168.301 168.875 168.303 171.179C168.305 173.482 166.439 175.351 164.136 175.353L164.135 174.797C166.132 174.795 167.749 173.176 167.747 171.179Z" fill="black"/>
<path d="M168.375 249.036C168.377 251.34 166.512 253.209 164.208 253.211C161.904 253.213 160.035 251.347 160.033 249.044C160.031 246.74 161.897 244.871 164.2 244.869C166.504 244.867 168.373 246.732 168.375 249.036Z" fill="white"/>
<path d="M167.819 249.037C167.817 247.04 166.197 245.423 164.201 245.425C162.204 245.427 160.587 247.047 160.589 249.043C160.591 251.04 162.211 252.657 164.207 252.655L164.208 253.211C161.904 253.213 160.035 251.347 160.033 249.044C160.031 246.74 161.897 244.871 164.2 244.869C166.504 244.867 168.373 246.732 168.375 249.036C168.377 251.34 166.512 253.209 164.208 253.211L164.207 252.655C166.204 252.653 167.821 251.033 167.819 249.037Z" fill="black"/>
<path d="M331.16 75.5131L331.16 76.0692L173.22 76.2153L173.219 75.6592L331.16 75.5131Z" fill="#DDDDDD"/>
<path d="M331.17 86.7748L331.171 87.3309L173.23 87.477L173.23 86.9209L331.17 86.7748Z" fill="#DDDDDD"/>
<path d="M331.181 97.8971L331.181 98.4533L173.241 98.5993L173.24 98.0432L331.181 97.8971Z" fill="#DDDDDD"/>
<path d="M331.181 97.8971L331.181 98.4533L173.241 98.5993L173.24 98.0432L331.181 97.8971Z" fill="#DDDDDD"/>
<path d="M331.191 109.02L331.192 109.576L173.251 109.722L173.251 109.166L331.191 109.02Z" fill="#DDDDDD"/>
<path d="M331.201 120.142L331.202 120.698L173.262 120.844L173.261 120.288L331.201 120.142Z" fill="#DDDDDD"/>
</g>
<path d="M186.84 73.2074L186.582 73.2076L186.575 64.7115L182.819 71.7345L182.52 71.7348L178.77 64.7422L178.778 73.2148L178.52 73.2151L178.512 64.426L178.887 64.4257L182.673 71.5003L186.434 64.4187L186.832 64.4183L186.84 73.2074ZM189.229 64.8848C189.147 64.8849 189.079 64.8557 189.024 64.7971C188.969 64.7386 188.942 64.6683 188.942 64.5863C188.942 64.5081 188.969 64.4417 189.023 64.387C189.078 64.3283 189.146 64.299 189.228 64.2989C189.31 64.2988 189.381 64.3281 189.439 64.3866C189.498 64.4412 189.527 64.5096 189.528 64.5916C189.528 64.6736 189.498 64.744 189.44 64.8026C189.381 64.8574 189.311 64.8848 189.229 64.8848ZM189.36 73.205L189.119 73.2053L189.114 67.3459L189.354 67.3457L189.36 73.205ZM191.879 73.2027L191.645 73.2029L191.637 64.4139L191.871 64.4136L191.879 73.2027ZM194.287 73.2005L194.047 73.2007L194.039 64.4116L194.279 64.4114L194.286 71.3489L194.625 70.9619L198.085 67.3376L198.372 67.3373L196.025 69.8356L198.799 73.1963L198.5 73.1966L195.867 69.9998L194.286 71.6829L194.287 73.2005Z" fill="black"/>
<path d="M178.52 86.9287L178.512 78.1396L183.609 78.1349L183.61 78.381L178.77 78.3855L178.773 82.2995L183.373 82.2953L183.373 82.5414L178.774 82.5456L178.777 86.6823L183.676 86.6778L183.676 86.9239L178.52 86.9287ZM188.053 86.8027C187.514 86.8032 187.029 86.6747 186.599 86.4173C186.17 86.1599 185.827 85.8106 185.573 85.3694C185.323 84.9282 185.197 84.4303 185.197 83.8756C185.196 83.3209 185.321 82.8228 185.57 82.3811C185.824 81.9395 186.165 81.5896 186.595 81.3314C187.028 81.0732 187.516 80.9438 188.059 80.9433C188.669 80.9427 189.208 81.1063 189.677 81.434C190.146 81.7578 190.486 82.1852 190.698 82.7162L190.696 81.058L190.93 81.0578L190.936 86.7824C190.936 87.4465 190.82 88.0169 190.586 88.4937C190.356 88.9705 190.02 89.3341 189.579 89.5845C189.142 89.8388 188.613 89.9662 187.991 89.9668C187.093 89.9676 186.347 89.6539 185.752 89.0255L185.922 88.8554C186.477 89.4487 187.183 89.7449 188.038 89.7441C188.593 89.7436 189.067 89.624 189.462 89.3854C189.86 89.1506 190.164 88.8144 190.375 88.3767C190.589 87.939 190.696 87.4155 190.696 86.8061L190.694 85.0366C190.483 85.568 190.142 85.9961 189.67 86.3207C189.201 86.6415 188.662 86.8021 188.053 86.8027ZM188.064 86.58C188.541 86.5796 188.971 86.4717 189.353 86.2565C189.736 86.0414 190.046 85.7461 190.284 85.3709C190.522 84.9957 190.658 84.5698 190.693 84.0932L190.693 83.6479C190.657 83.1714 190.52 82.7457 190.281 82.3709C190.047 81.9961 189.738 81.7015 189.355 81.487C188.976 81.2725 188.548 81.1655 188.071 81.1659C187.575 81.1664 187.128 81.2859 186.73 81.5246C186.332 81.7593 186.017 82.0819 185.787 82.4923C185.557 82.8987 185.442 83.3598 185.443 83.8754C185.443 84.3871 185.559 84.8479 185.79 85.2579C186.021 85.6678 186.333 85.9918 186.728 86.2297C187.123 86.4637 187.568 86.5805 188.064 86.58ZM195.436 86.7958C194.897 86.7963 194.412 86.6679 193.982 86.4105C193.552 86.1531 193.21 85.8038 192.956 85.3626C192.706 84.9214 192.58 84.4235 192.58 83.8688C192.579 83.3141 192.704 82.8159 192.953 82.3743C193.207 81.9327 193.548 81.5827 193.978 81.3245C194.411 81.0663 194.899 80.937 195.442 80.9365C196.051 80.9359 196.591 81.0995 197.06 81.4272C197.529 81.7509 197.869 82.1784 198.08 82.7094L198.079 81.0512L198.313 81.051L198.319 86.7756C198.319 87.4397 198.203 88.0101 197.969 88.4869C197.739 88.9636 197.403 89.3272 196.962 89.5776C196.525 89.8319 195.995 89.9594 195.374 89.96C194.476 89.9608 193.729 89.647 193.135 89.0187L193.305 88.8486C193.86 89.4418 194.565 89.7381 195.421 89.7373C195.976 89.7368 196.45 89.6172 196.844 89.3785C197.243 89.1438 197.547 88.8076 197.758 88.3699C197.972 87.9322 198.079 87.4086 198.078 86.7993L198.077 85.0297C197.866 85.5612 197.525 85.9892 197.053 86.3139C196.584 86.6346 196.045 86.7953 195.436 86.7958ZM195.447 86.5732C195.924 86.5727 196.353 86.4649 196.736 86.2497C197.119 86.0345 197.429 85.7393 197.667 85.3641C197.905 84.9889 198.041 84.563 198.076 84.0864L198.075 83.6411C198.04 83.1645 197.903 82.7389 197.664 82.3641C197.429 81.9893 197.121 81.6947 196.738 81.4802C196.358 81.2657 195.931 81.1587 195.454 81.1591C194.958 81.1596 194.511 81.2791 194.113 81.5178C193.714 81.7525 193.4 82.0751 193.17 82.4854C192.94 82.8919 192.825 83.3529 192.826 83.8686C192.826 84.3803 192.942 84.8411 193.173 85.2511C193.403 85.661 193.716 85.9849 194.111 86.2229C194.506 86.4569 194.951 86.5736 195.447 86.5732ZM200.023 86.3932L200.158 86.1997C200.31 86.3284 200.471 86.4377 200.639 86.5274C200.811 86.617 200.988 86.6852 201.172 86.7319C201.356 86.7787 201.541 86.8019 201.729 86.8017C202.201 86.8013 202.59 86.6681 202.894 86.4022C203.199 86.1324 203.351 85.7885 203.35 85.3706C203.35 85.0737 203.276 84.8335 203.127 84.6501C202.982 84.4666 202.793 84.3144 202.558 84.1936C202.328 84.0727 202.086 83.9596 201.832 83.8544C201.577 83.7452 201.333 83.6302 201.099 83.5094C200.864 83.3885 200.673 83.2344 200.524 83.047C200.376 82.8557 200.301 82.6097 200.301 82.3089C200.301 82.0277 200.367 81.7854 200.499 81.5822C200.636 81.375 200.827 81.2147 201.073 81.1012C201.323 80.9877 201.614 80.9308 201.946 80.9304C202.38 80.93 202.804 81.0273 203.218 81.2222L203.118 81.4333C203.013 81.3748 202.896 81.3261 202.767 81.2871C202.638 81.2443 202.503 81.2112 202.362 81.1879C202.226 81.1646 202.091 81.153 201.958 81.1531C201.54 81.1535 201.2 81.2612 200.939 81.4763C200.677 81.6875 200.547 81.9649 200.547 82.3087C200.547 82.5587 200.614 82.7657 200.747 82.9296C200.884 83.0935 201.059 83.232 201.274 83.3451C201.493 83.4543 201.722 83.5596 201.96 83.6609C202.226 83.7739 202.484 83.8987 202.734 84.0352C202.984 84.1678 203.189 84.3395 203.35 84.5502C203.514 84.761 203.596 85.0363 203.597 85.3762C203.597 85.7004 203.517 85.9876 203.357 86.2377C203.201 86.484 202.985 86.6775 202.707 86.8184C202.43 86.9554 202.108 87.024 201.741 87.0244C201.108 87.025 200.535 86.8146 200.023 86.3932Z" fill="black"/>
<path d="M178.52 98.6833L178.512 89.8943L180.891 89.8921C181.582 89.8914 182.168 89.9924 182.649 90.1951C183.133 90.3978 183.503 90.6885 183.757 91.0671C184.011 91.4458 184.139 91.9027 184.139 92.4379C184.14 92.9691 184.013 93.4263 183.76 93.8093C183.506 94.1924 183.137 94.4857 182.653 94.6893C182.173 94.8928 181.587 94.9949 180.895 94.9956L178.774 94.9975L178.778 98.6831L178.52 98.6833ZM178.774 94.7514L180.895 94.7495C181.84 94.7486 182.573 94.5428 183.092 94.1322C183.615 93.7177 183.876 93.153 183.875 92.4381C183.875 91.7233 183.613 91.161 183.089 90.7514C182.569 90.3417 181.836 90.1373 180.891 90.1382L178.77 90.1401L178.774 94.7514ZM190.25 98.6725L190.063 98.6726L190.015 97.2899C189.855 97.7431 189.58 98.1067 189.19 98.3805C188.799 98.6543 188.34 98.7914 187.813 98.7919C187.418 98.7923 187.063 98.7145 186.746 98.5585C186.43 98.4026 186.18 98.1899 185.996 97.9205C185.816 97.6512 185.726 97.3466 185.725 97.0067C185.725 96.6474 185.824 96.3289 186.023 96.0514C186.226 95.7738 186.505 95.5548 186.861 95.3944C187.22 95.2339 187.632 95.1534 188.097 95.153C188.456 95.1526 188.798 95.2031 189.122 95.3044C189.45 95.4017 189.746 95.5479 190.007 95.743L190.007 95.0399C190.006 94.5985 189.928 94.2196 189.771 93.9034C189.619 93.5871 189.398 93.3451 189.109 93.1774C188.819 93.0058 188.474 92.9202 188.071 92.9206C187.727 92.9209 187.395 92.9837 187.075 93.109C186.759 93.2304 186.476 93.4045 186.226 93.6313L186.079 93.4146C186.361 93.1839 186.673 93.0078 187.016 92.8864C187.364 92.7611 187.716 92.6982 188.071 92.6979C188.516 92.6975 188.901 92.7909 189.226 92.9781C189.55 93.1653 189.8 93.4307 189.976 93.7743C190.156 94.1179 190.247 94.526 190.247 94.9986L190.25 98.6725ZM187.836 98.5692C188.246 98.5689 188.615 98.4728 188.943 98.2811C189.271 98.0894 189.531 97.8294 189.722 97.5011C189.913 97.1728 190.008 96.8075 190.008 96.4051L190.008 96.0125C189.714 95.798 189.41 95.6381 189.093 95.5329C188.781 95.4277 188.447 95.3753 188.091 95.3756C187.466 95.3762 186.956 95.5251 186.562 95.8224C186.168 96.1196 185.971 96.5046 185.971 96.9772C185.972 97.278 186.054 97.5494 186.218 97.7914C186.383 98.0296 186.605 98.2188 186.887 98.3592C187.168 98.4995 187.485 98.5696 187.836 98.5692ZM191.949 98.1553L192.084 97.9618C192.236 98.0906 192.396 98.1998 192.564 98.2895C192.736 98.3792 192.914 98.4473 193.098 98.4941C193.281 98.5408 193.467 98.564 193.655 98.5639C194.127 98.5634 194.516 98.4302 194.82 98.1643C195.125 97.8945 195.277 97.5506 195.276 97.1327C195.276 96.8358 195.202 96.5956 195.053 96.4122C194.908 96.2287 194.719 96.0765 194.484 95.9557C194.254 95.8348 194.011 95.7217 193.757 95.6165C193.503 95.5073 193.259 95.3923 193.025 95.2715C192.79 95.1506 192.599 94.9965 192.45 94.8091C192.301 94.6178 192.227 94.3718 192.227 94.071C192.226 93.7898 192.292 93.5475 192.425 93.3443C192.562 93.1371 192.753 92.9768 192.999 92.8633C193.249 92.7498 193.54 92.6929 193.872 92.6926C194.305 92.6922 194.729 92.7894 195.144 92.9843L195.044 93.1954C194.939 93.1369 194.821 93.0882 194.692 93.0492C194.563 93.0064 194.429 92.9733 194.288 92.95C194.151 92.9267 194.017 92.9151 193.884 92.9152C193.466 92.9156 193.126 93.0233 192.864 93.2384C192.603 93.4496 192.472 93.7271 192.473 94.0708C192.473 94.3208 192.539 94.5278 192.672 94.6917C192.809 94.8556 192.985 94.9942 193.2 95.1072C193.419 95.2164 193.648 95.3217 193.886 95.423C194.152 95.536 194.41 95.6608 194.66 95.7973C194.91 95.9299 195.115 96.1016 195.276 96.3124C195.44 96.5231 195.522 96.7985 195.522 97.1383C195.523 97.4625 195.443 97.7497 195.283 97.9998C195.127 98.2461 194.91 98.4396 194.633 98.5805C194.356 98.7175 194.034 98.7862 193.666 98.7865C193.034 98.7871 192.461 98.5767 191.949 98.1553ZM199.994 98.5404C199.694 98.7008 199.389 98.7812 199.081 98.7815C198.807 98.7817 198.569 98.7214 198.366 98.6005C198.162 98.4757 198.004 98.3001 197.89 98.0736C197.777 97.8471 197.72 97.5835 197.72 97.2827L197.716 93.0288L196.69 93.0298L196.69 92.8071L197.716 92.8062L197.714 91.3413L197.955 91.3411L197.956 92.806L199.831 92.8042L199.831 93.0269L197.956 93.0286L197.96 97.2415C197.96 97.6399 198.064 97.9602 198.271 98.2022C198.479 98.4402 198.754 98.5591 199.098 98.5588C199.356 98.5586 199.623 98.4841 199.9 98.3354L199.994 98.5404ZM205.754 98.6581L205.567 98.6583L205.519 97.2755C205.359 97.7288 205.084 98.0923 204.693 98.3661C204.303 98.6399 203.844 98.7771 203.317 98.7776C202.922 98.7779 202.567 98.7001 202.25 98.5442C201.934 98.3882 201.683 98.1756 201.5 97.9062C201.32 97.6368 201.23 97.3322 201.229 96.9924C201.229 96.633 201.328 96.3146 201.527 96.037C201.73 95.7595 202.009 95.5405 202.364 95.38C202.724 95.2195 203.136 95.1391 203.601 95.1386C203.96 95.1383 204.302 95.1888 204.626 95.29C204.954 95.3874 205.249 95.5336 205.511 95.7287L205.511 95.0255C205.51 94.5841 205.432 94.2053 205.275 93.889C205.123 93.5728 204.902 93.3308 204.612 93.1631C204.323 92.9915 203.977 92.9059 203.575 92.9062C203.231 92.9066 202.899 92.9694 202.579 93.0947C202.263 93.216 201.98 93.3901 201.73 93.6169L201.583 93.4003C201.864 93.1695 202.177 92.9935 202.52 92.8721C202.868 92.7467 203.219 92.6839 203.575 92.6836C204.02 92.6832 204.405 92.7766 204.729 92.9638C205.054 93.151 205.304 93.4164 205.48 93.7599C205.66 94.1035 205.75 94.5116 205.751 94.9843L205.754 98.6581ZM203.34 98.5549C203.75 98.5545 204.119 98.4585 204.447 98.2668C204.775 98.075 205.035 97.815 205.226 97.4867C205.417 97.1584 205.512 96.7931 205.512 96.3908L205.512 95.9982C205.218 95.7836 204.914 95.6237 204.597 95.5186C204.284 95.4134 203.95 95.361 203.595 95.3613C202.97 95.3619 202.46 95.5108 202.066 95.808C201.672 96.1053 201.475 96.4902 201.475 96.9629C201.476 97.2636 201.558 97.5351 201.722 97.7771C201.886 98.0152 202.109 98.2045 202.391 98.3448C202.672 98.4852 202.989 98.5552 203.34 98.5549Z" fill="black"/>
<path d="M182.569 109.63C181.917 109.631 181.315 109.518 180.764 109.292C180.213 109.066 179.734 108.748 179.327 108.338C178.921 107.929 178.606 107.446 178.383 106.892C178.16 106.334 178.048 105.724 178.047 105.064C178.046 104.404 178.157 103.796 178.379 103.242C178.602 102.683 178.916 102.198 179.321 101.788C179.727 101.377 180.205 101.058 180.756 100.831C181.307 100.604 181.908 100.49 182.56 100.49C183.213 100.489 183.812 100.602 184.36 100.828C184.907 101.054 185.384 101.372 185.79 101.782C186.197 102.191 186.512 102.675 186.735 103.234C186.958 103.788 187.07 104.396 187.071 105.056C187.071 105.716 186.96 106.325 186.738 106.884C186.516 107.439 186.202 107.922 185.796 108.332C185.39 108.743 184.914 109.062 184.367 109.289C183.821 109.516 183.221 109.63 182.569 109.63ZM182.563 109.384C183.176 109.384 183.74 109.276 184.256 109.06C184.775 108.845 185.224 108.544 185.603 108.157C185.985 107.766 186.282 107.307 186.492 106.779C186.702 106.251 186.807 105.677 186.807 105.056C186.806 104.435 186.7 103.861 186.489 103.334C186.277 102.807 185.98 102.35 185.597 101.963C185.218 101.573 184.768 101.271 184.248 101.056C183.733 100.842 183.168 100.735 182.555 100.736C181.942 100.736 181.375 100.844 180.856 101.06C180.34 101.275 179.892 101.578 179.509 101.969C179.131 102.356 178.836 102.813 178.626 103.341C178.415 103.865 178.31 104.439 178.311 105.064C178.311 105.689 178.417 106.265 178.629 106.792C178.84 107.315 179.136 107.772 179.515 108.162C179.898 108.549 180.347 108.849 180.863 109.063C181.383 109.278 181.95 109.385 182.563 109.384ZM193.004 109.445L192.817 109.445L192.769 108.062C192.609 108.516 192.334 108.879 191.943 109.153C191.553 109.427 191.094 109.564 190.567 109.564C190.172 109.565 189.817 109.487 189.5 109.331C189.184 109.175 188.933 108.962 188.75 108.693C188.57 108.424 188.48 108.119 188.479 107.779C188.479 107.42 188.578 107.101 188.777 106.824C188.98 106.546 189.259 106.327 189.615 106.167C189.974 106.006 190.386 105.926 190.851 105.925C191.21 105.925 191.552 105.975 191.876 106.077C192.204 106.174 192.499 106.32 192.761 106.515L192.761 105.812C192.76 105.371 192.682 104.992 192.525 104.676C192.373 104.359 192.152 104.117 191.862 103.95C191.573 103.778 191.227 103.693 190.825 103.693C190.481 103.693 190.149 103.756 189.829 103.881C189.513 104.003 189.23 104.177 188.98 104.404L188.833 104.187C189.114 103.956 189.427 103.78 189.77 103.659C190.118 103.533 190.469 103.471 190.825 103.47C191.27 103.47 191.655 103.563 191.979 103.75C192.304 103.938 192.554 104.203 192.73 104.547C192.91 104.89 193 105.298 193.001 105.771L193.004 109.445ZM190.59 109.342C191 109.341 191.369 109.245 191.697 109.053C192.025 108.862 192.285 108.602 192.476 108.273C192.667 107.945 192.762 107.58 192.762 107.177L192.762 106.785C192.468 106.57 192.164 106.41 191.847 106.305C191.534 106.2 191.2 106.148 190.845 106.148C190.22 106.149 189.71 106.297 189.316 106.595C188.922 106.892 188.725 107.277 188.725 107.75C188.726 108.05 188.808 108.322 188.972 108.564C189.136 108.802 189.359 108.991 189.641 109.132C189.922 109.272 190.239 109.342 190.59 109.342ZM197.709 109.317C197.409 109.478 197.104 109.558 196.795 109.559C196.522 109.559 196.284 109.498 196.08 109.378C195.877 109.253 195.719 109.077 195.605 108.851C195.492 108.624 195.435 108.361 195.435 108.06L195.431 103.806L194.405 103.807L194.405 103.584L195.43 103.583L195.429 102.118L195.669 102.118L195.671 103.583L197.546 103.581L197.546 103.804L195.671 103.806L195.675 108.019C195.675 108.417 195.779 108.737 195.986 108.979C196.193 109.217 196.469 109.336 196.813 109.336C197.071 109.336 197.338 109.261 197.615 109.112L197.709 109.317ZM211.479 109.428L211.239 109.428L211.236 106.129C211.235 105.36 211.053 104.758 210.689 104.325C210.325 103.892 209.821 103.675 209.177 103.676C208.528 103.677 208.017 103.898 207.642 104.339C207.271 104.777 207.086 105.375 207.087 106.133L207.09 109.432L206.85 109.432L206.847 106.133C206.846 105.364 206.664 104.762 206.3 104.329C205.941 103.896 205.438 103.679 204.794 103.68C204.145 103.681 203.634 103.902 203.259 104.344C202.885 104.781 202.698 105.379 202.698 106.137L202.702 109.436L202.461 109.436L202.456 103.577L202.679 103.576L202.692 104.948C202.863 104.459 203.128 104.09 203.487 103.839C203.85 103.585 204.292 103.458 204.811 103.457C205.385 103.457 205.86 103.611 206.235 103.919C206.611 104.227 206.863 104.666 206.993 105.237C207.14 104.654 207.402 104.213 207.776 103.912C208.155 103.607 208.63 103.454 209.2 103.453C209.915 103.453 210.472 103.688 210.87 104.161C211.273 104.629 211.475 105.285 211.476 106.129L211.479 109.428ZM213.815 101.105C213.733 101.105 213.664 101.076 213.61 101.018C213.555 100.959 213.528 100.889 213.528 100.807C213.527 100.729 213.555 100.662 213.609 100.607C213.664 100.549 213.732 100.519 213.814 100.519C213.896 100.519 213.967 100.548 214.025 100.607C214.084 100.662 214.113 100.73 214.113 100.812C214.114 100.894 214.084 100.964 214.026 101.023C213.967 101.078 213.897 101.105 213.815 101.105ZM213.946 109.425L213.705 109.426L213.7 103.566L213.94 103.566L213.946 109.425ZM216.465 109.423L216.231 109.423L216.223 100.634L216.457 100.634L216.465 109.423ZM218.873 109.421L218.633 109.421L218.625 100.632L218.865 100.632L218.872 107.569L219.211 107.182L222.671 103.558L222.958 103.558L220.611 106.056L223.385 109.417L223.086 109.417L220.452 106.22L218.872 107.903L218.873 109.421Z" fill="black"/>
<path d="M182.569 109.63C181.917 109.631 181.315 109.518 180.764 109.292C180.213 109.066 179.734 108.748 179.327 108.338C178.921 107.929 178.606 107.446 178.383 106.892C178.16 106.334 178.048 105.724 178.047 105.064C178.046 104.404 178.157 103.796 178.379 103.242C178.602 102.683 178.916 102.198 179.321 101.788C179.727 101.377 180.205 101.058 180.756 100.831C181.307 100.604 181.908 100.49 182.56 100.49C183.213 100.489 183.812 100.602 184.36 100.828C184.907 101.054 185.384 101.372 185.79 101.782C186.197 102.191 186.512 102.675 186.735 103.234C186.958 103.788 187.07 104.396 187.071 105.056C187.071 105.716 186.96 106.325 186.738 106.884C186.516 107.439 186.202 107.922 185.796 108.332C185.39 108.743 184.914 109.062 184.367 109.289C183.821 109.516 183.221 109.63 182.569 109.63ZM182.563 109.384C183.176 109.384 183.74 109.276 184.256 109.06C184.775 108.845 185.224 108.544 185.603 108.157C185.985 107.766 186.282 107.307 186.492 106.779C186.702 106.251 186.807 105.677 186.807 105.056C186.806 104.435 186.7 103.861 186.489 103.334C186.277 102.807 185.98 102.35 185.597 101.963C185.218 101.573 184.768 101.271 184.248 101.056C183.733 100.842 183.168 100.735 182.555 100.736C181.942 100.736 181.375 100.844 180.856 101.06C180.34 101.275 179.892 101.578 179.509 101.969C179.131 102.356 178.836 102.813 178.626 103.341C178.415 103.865 178.31 104.439 178.311 105.064C178.311 105.689 178.417 106.265 178.629 106.792C178.84 107.315 179.136 107.772 179.515 108.162C179.898 108.549 180.347 108.849 180.863 109.063C181.383 109.278 181.95 109.385 182.563 109.384ZM193.004 109.445L192.817 109.445L192.769 108.062C192.609 108.516 192.334 108.879 191.943 109.153C191.553 109.427 191.094 109.564 190.567 109.564C190.172 109.565 189.817 109.487 189.5 109.331C189.184 109.175 188.933 108.962 188.75 108.693C188.57 108.424 188.48 108.119 188.479 107.779C188.479 107.42 188.578 107.101 188.777 106.824C188.98 106.546 189.259 106.327 189.615 106.167C189.974 106.006 190.386 105.926 190.851 105.925C191.21 105.925 191.552 105.975 191.876 106.077C192.204 106.174 192.499 106.32 192.761 106.515L192.761 105.812C192.76 105.371 192.682 104.992 192.525 104.676C192.373 104.359 192.152 104.117 191.862 103.95C191.573 103.778 191.227 103.693 190.825 103.693C190.481 103.693 190.149 103.756 189.829 103.881C189.513 104.003 189.23 104.177 188.98 104.404L188.833 104.187C189.114 103.956 189.427 103.78 189.77 103.659C190.118 103.533 190.469 103.471 190.825 103.47C191.27 103.47 191.655 103.563 191.979 103.75C192.304 103.938 192.554 104.203 192.73 104.547C192.91 104.89 193 105.298 193.001 105.771L193.004 109.445ZM190.59 109.342C191 109.341 191.369 109.245 191.697 109.053C192.025 108.862 192.285 108.602 192.476 108.273C192.667 107.945 192.762 107.58 192.762 107.177L192.762 106.785C192.468 106.57 192.164 106.41 191.847 106.305C191.534 106.2 191.2 106.148 190.845 106.148C190.22 106.149 189.71 106.297 189.316 106.595C188.922 106.892 188.725 107.277 188.725 107.75C188.726 108.05 188.808 108.322 188.972 108.564C189.136 108.802 189.359 108.991 189.641 109.132C189.922 109.272 190.239 109.342 190.59 109.342ZM197.709 109.317C197.409 109.478 197.104 109.558 196.795 109.559C196.522 109.559 196.284 109.498 196.08 109.378C195.877 109.253 195.719 109.077 195.605 108.851C195.492 108.624 195.435 108.361 195.435 108.06L195.431 103.806L194.405 103.807L194.405 103.584L195.43 103.583L195.429 102.118L195.669 102.118L195.671 103.583L197.546 103.581L197.546 103.804L195.671 103.806L195.675 108.019C195.675 108.417 195.779 108.737 195.986 108.979C196.193 109.217 196.469 109.336 196.813 109.336C197.071 109.336 197.338 109.261 197.615 109.112L197.709 109.317ZM211.479 109.428L211.239 109.428L211.236 106.129C211.235 105.36 211.053 104.758 210.689 104.325C210.325 103.892 209.821 103.675 209.177 103.676C208.528 103.677 208.017 103.898 207.642 104.339C207.271 104.777 207.086 105.375 207.087 106.133L207.09 109.432L206.85 109.432L206.847 106.133C206.846 105.364 206.664 104.762 206.3 104.329C205.941 103.896 205.438 103.679 204.794 103.68C204.145 103.681 203.634 103.902 203.259 104.344C202.885 104.781 202.698 105.379 202.698 106.137L202.702 109.436L202.461 109.436L202.456 103.577L202.679 103.576L202.692 104.948C202.863 104.459 203.128 104.09 203.487 103.839C203.85 103.585 204.292 103.458 204.811 103.457C205.385 103.457 205.86 103.611 206.235 103.919C206.611 104.227 206.863 104.666 206.993 105.237C207.14 104.654 207.402 104.213 207.776 103.912C208.155 103.607 208.63 103.454 209.2 103.453C209.915 103.453 210.472 103.688 210.87 104.161C211.273 104.629 211.475 105.285 211.476 106.129L211.479 109.428ZM213.815 101.105C213.733 101.105 213.664 101.076 213.61 101.018C213.555 100.959 213.528 100.889 213.528 100.807C213.527 100.729 213.555 100.662 213.609 100.607C213.664 100.549 213.732 100.519 213.814 100.519C213.896 100.519 213.967 100.548 214.025 100.607C214.084 100.662 214.113 100.73 214.113 100.812C214.114 100.894 214.084 100.964 214.026 101.023C213.967 101.078 213.897 101.105 213.815 101.105ZM213.946 109.425L213.705 109.426L213.7 103.566L213.94 103.566L213.946 109.425ZM216.465 109.423L216.231 109.423L216.223 100.634L216.457 100.634L216.465 109.423ZM218.873 109.421L218.633 109.421L218.625 100.632L218.865 100.632L218.872 107.569L219.211 107.182L222.671 103.558L222.958 103.558L220.611 106.056L223.385 109.417L223.086 109.417L220.452 106.22L218.872 107.903L218.873 109.421Z" fill="black"/>
<path d="M185.814 120.063C185.416 120.478 184.939 120.802 184.385 121.037C183.83 121.268 183.225 121.384 182.569 121.385C181.917 121.385 181.315 121.273 180.764 121.046C180.213 120.82 179.734 120.503 179.327 120.093C178.921 119.683 178.606 119.201 178.383 118.646C178.16 118.088 178.048 117.479 178.047 116.819C178.046 116.158 178.157 115.551 178.379 114.996C178.602 114.437 178.916 113.952 179.321 113.542C179.727 113.131 180.205 112.813 180.756 112.586C181.307 112.358 181.908 112.245 182.56 112.244C183.217 112.243 183.82 112.36 184.371 112.594C184.926 112.824 185.405 113.144 185.808 113.554L185.626 113.741C185.247 113.347 184.796 113.041 184.272 112.823C183.748 112.6 183.176 112.49 182.555 112.49C181.942 112.491 181.375 112.599 180.856 112.814C180.34 113.029 179.892 113.332 179.509 113.723C179.131 114.11 178.836 114.568 178.626 115.095C178.415 115.619 178.31 116.193 178.311 116.818C178.311 117.443 178.417 118.019 178.629 118.546C178.84 119.07 179.136 119.526 179.515 119.917C179.898 120.303 180.347 120.604 180.863 120.818C181.383 121.032 181.95 121.139 182.563 121.139C183.184 121.138 183.756 121.026 184.279 120.803C184.803 120.58 185.253 120.273 185.632 119.882L185.814 120.063ZM191.809 121.2L191.621 121.2L191.573 119.818C191.414 120.271 191.138 120.635 190.748 120.908C190.358 121.182 189.899 121.319 189.372 121.32C188.977 121.32 188.621 121.242 188.305 121.086C187.988 120.93 187.738 120.718 187.554 120.448C187.374 120.179 187.284 119.874 187.284 119.535C187.284 119.175 187.383 118.857 187.582 118.579C187.785 118.302 188.064 118.083 188.419 117.922C188.778 117.762 189.19 117.681 189.655 117.681C190.015 117.68 190.357 117.731 190.681 117.832C191.009 117.93 191.304 118.076 191.566 118.271L191.565 117.568C191.565 117.126 191.486 116.747 191.33 116.431C191.177 116.115 190.956 115.873 190.667 115.705C190.378 115.534 190.032 115.448 189.63 115.448C189.286 115.449 188.954 115.512 188.634 115.637C188.318 115.758 188.035 115.932 187.785 116.159L187.638 115.942C187.919 115.712 188.231 115.536 188.575 115.414C188.923 115.289 189.274 115.226 189.63 115.226C190.075 115.225 190.46 115.319 190.784 115.506C191.109 115.693 191.359 115.959 191.535 116.302C191.715 116.646 191.805 117.054 191.806 117.526L191.809 121.2ZM189.395 121.097C189.805 121.097 190.174 121.001 190.502 120.809C190.83 120.617 191.089 120.357 191.281 120.029C191.472 119.701 191.567 119.335 191.567 118.933L191.566 118.54C191.273 118.326 190.968 118.166 190.652 118.061C190.339 117.956 190.005 117.903 189.65 117.903C189.025 117.904 188.515 118.053 188.121 118.35C187.727 118.647 187.53 119.032 187.53 119.505C187.53 119.806 187.613 120.077 187.777 120.319C187.941 120.557 188.164 120.747 188.445 120.887C188.727 121.027 189.043 121.097 189.395 121.097ZM196.514 121.073C196.213 121.233 195.909 121.314 195.6 121.314C195.327 121.314 195.088 121.254 194.885 121.133C194.682 121.008 194.523 120.833 194.41 120.606C194.296 120.38 194.24 120.116 194.239 119.815L194.235 115.561L193.21 115.562L193.21 115.34L194.235 115.339L194.234 113.874L194.474 113.874L194.475 115.338L196.35 115.337L196.351 115.559L194.476 115.561L194.48 119.774C194.48 120.172 194.584 120.493 194.791 120.735C194.998 120.973 195.274 121.092 195.617 121.091C195.875 121.091 196.143 121.017 196.42 120.868L196.514 121.073ZM201.946 121.191L201.705 121.191L201.7 115.554L200.675 115.555L200.675 115.333L201.7 115.332L201.699 113.726C201.698 113.422 201.755 113.158 201.868 112.935C201.981 112.708 202.139 112.535 202.342 112.413C202.545 112.288 202.783 112.225 203.057 112.225C203.205 112.225 203.357 112.246 203.514 112.289C203.67 112.328 203.822 112.386 203.971 112.464L203.877 112.67C203.74 112.596 203.604 112.541 203.467 112.506C203.334 112.467 203.203 112.448 203.074 112.448C202.731 112.448 202.455 112.569 202.248 112.812C202.042 113.05 201.938 113.369 201.939 113.767L201.94 115.332L203.815 115.33L203.815 115.552L201.94 115.554L201.946 121.191ZM207.975 121.303C207.409 121.303 206.899 121.171 206.445 120.906C205.996 120.636 205.638 120.273 205.372 119.817C205.11 119.356 204.979 118.837 204.978 118.258C204.978 117.68 205.108 117.163 205.369 116.705C205.634 116.244 205.992 115.881 206.441 115.615C206.893 115.345 207.403 115.209 207.969 115.209C208.536 115.208 209.044 115.343 209.493 115.612C209.943 115.877 210.299 116.24 210.561 116.701C210.823 117.157 210.954 117.675 210.955 118.253C210.955 118.827 210.825 119.345 210.564 119.806C210.302 120.267 209.947 120.633 209.498 120.903C209.049 121.169 208.541 121.302 207.975 121.303ZM207.975 121.08C208.494 121.079 208.959 120.956 209.369 120.709C209.783 120.459 210.109 120.121 210.347 119.695C210.588 119.269 210.709 118.788 210.709 118.253C210.708 117.718 210.587 117.238 210.344 116.812C210.105 116.387 209.779 116.051 209.365 115.805C208.954 115.556 208.489 115.431 207.97 115.431C207.45 115.432 206.981 115.557 206.564 115.808C206.15 116.054 205.822 116.39 205.58 116.816C205.342 117.242 205.224 117.723 205.224 118.258C205.225 118.793 205.344 119.274 205.583 119.699C205.826 120.125 206.154 120.462 206.568 120.712C206.986 120.958 207.455 121.08 207.975 121.08ZM215.182 121.296C214.616 121.296 214.106 121.164 213.652 120.899C213.203 120.63 212.845 120.267 212.579 119.81C212.317 119.349 212.186 118.83 212.185 118.252C212.185 117.674 212.315 117.156 212.576 116.699C212.841 116.238 213.199 115.874 213.648 115.608C214.1 115.338 214.61 115.203 215.176 115.202C215.743 115.202 216.251 115.336 216.7 115.605C217.15 115.87 217.506 116.233 217.768 116.694C218.03 117.151 218.161 117.668 218.162 118.246C218.162 118.82 218.032 119.338 217.771 119.799C217.509 120.261 217.154 120.626 216.705 120.896C216.256 121.162 215.748 121.295 215.182 121.296ZM215.182 121.073C215.701 121.073 216.166 120.949 216.576 120.703C216.99 120.452 217.316 120.114 217.554 119.688C217.795 119.262 217.916 118.782 217.916 118.246C217.915 117.711 217.794 117.231 217.551 116.805C217.312 116.38 216.986 116.044 216.572 115.799C216.161 115.549 215.696 115.424 215.177 115.425C214.657 115.425 214.188 115.551 213.771 115.801C213.357 116.048 213.029 116.384 212.787 116.81C212.549 117.236 212.431 117.716 212.431 118.252C212.432 118.787 212.551 119.267 212.79 119.693C213.033 120.118 213.361 120.456 213.775 120.705C214.193 120.951 214.662 121.074 215.182 121.073ZM225.36 121.169L225.119 121.17L225.118 119.505C224.904 120.064 224.552 120.502 224.064 120.819C223.576 121.132 223.024 121.289 222.407 121.289C221.829 121.29 221.313 121.157 220.859 120.892C220.406 120.623 220.048 120.258 219.786 119.797C219.524 119.337 219.393 118.819 219.392 118.245C219.392 117.667 219.522 117.149 219.783 116.692C220.045 116.231 220.402 115.867 220.855 115.601C221.307 115.331 221.823 115.196 222.401 115.195C223.018 115.195 223.571 115.353 224.06 115.669C224.548 115.984 224.9 116.422 225.116 116.98L225.111 112.38L225.352 112.38L225.36 121.169ZM222.383 121.067C222.883 121.066 223.34 120.952 223.754 120.725C224.168 120.495 224.497 120.182 224.743 119.787C224.993 119.388 225.117 118.937 225.117 118.433L225.117 118.046C225.116 117.554 224.995 117.109 224.752 116.711C224.51 116.313 224.181 115.999 223.767 115.768C223.356 115.534 222.895 115.418 222.384 115.418C221.864 115.419 221.396 115.544 220.978 115.794C220.564 116.041 220.236 116.377 219.994 116.803C219.756 117.229 219.638 117.71 219.638 118.245C219.639 118.78 219.758 119.26 219.997 119.686C220.24 120.112 220.568 120.449 220.982 120.699C221.397 120.944 221.864 121.067 222.383 121.067Z" fill="black"/>
<g filter="url(#filter2_dd_127_469)">
<path d="M262.739 88.1422C262.735 83.5351 266.466 79.7968 271.074 79.7926L445.141 79.6316C449.748 79.6273 453.486 83.3587 453.491 87.9658L453.689 302.074C453.693 306.682 449.962 310.42 445.355 310.424L271.287 310.585C266.68 310.589 262.942 306.858 262.937 302.251L262.739 88.1422Z" fill="white"/>
<path d="M445.354 309.868L445.355 310.424L271.287 310.585L271.287 310.029L445.354 309.868ZM453.133 302.075L452.935 87.9663C452.931 83.6663 449.442 80.1837 445.142 80.1877L271.074 80.3487C266.774 80.3527 263.292 83.8417 263.296 88.1417L263.494 302.25C263.498 306.55 266.987 310.033 271.287 310.029L271.287 310.585C266.68 310.589 262.942 306.858 262.937 302.251L262.739 88.1422C262.735 83.5351 266.466 79.7968 271.074 79.7926L445.141 79.6316L445.356 79.6341C449.864 79.744 453.487 83.4306 453.491 87.9658L453.689 302.074C453.693 306.61 450.077 310.303 445.57 310.421L445.355 310.424L445.354 309.868C449.654 309.864 453.137 306.375 453.133 302.075Z" fill="black"/>
<path d="M445.16 99.5131L445.16 100.069L287.22 100.215L287.219 99.6592L445.16 99.5131Z" fill="#DDDDDD"/>
<path d="M445.17 110.775L445.171 111.331L287.23 111.477L287.23 110.921L445.17 110.775Z" fill="#DDDDDD"/>
<path d="M445.181 121.897L445.181 122.453L287.241 122.599L287.24 122.043L445.181 121.897Z" fill="#DDDDDD"/>
<path d="M445.181 121.897L445.181 122.453L287.241 122.599L287.24 122.043L445.181 121.897Z" fill="#DDDDDD"/>
<path d="M445.191 133.019L445.191 133.576L287.251 133.722L287.25 133.166L445.191 133.019Z" fill="#DDDDDD"/>
<path d="M445.201 144.142L445.202 144.698L287.261 144.844L287.261 144.288L445.201 144.142Z" fill="#DDDDDD"/>
<path d="M445.212 155.265L445.212 155.821L287.272 155.967L287.271 155.411L445.212 155.265Z" fill="#DDDDDD"/>
<path d="M445.222 166.526L445.223 167.082L287.282 167.228L287.282 166.672L445.222 166.526Z" fill="#DDDDDD"/>
<path d="M445.232 177.649L445.233 178.205L287.293 178.351L287.292 177.795L445.232 177.649Z" fill="#DDDDDD"/>
<path d="M445.232 177.649L445.233 178.205L287.293 178.351L287.292 177.795L445.232 177.649Z" fill="#DDDDDD"/>
<path d="M445.243 188.771L445.243 189.328L287.303 189.474L287.302 188.917L445.243 188.771Z" fill="#DDDDDD"/>
<path d="M445.253 199.894L445.253 200.45L287.313 200.596L287.312 200.04L445.253 199.894Z" fill="#DDDDDD"/>
<path d="M445.263 210.877L445.263 211.433L287.323 211.58L287.323 211.023L445.263 210.877Z" fill="#DDDDDD"/>
<path d="M445.273 222.139L445.274 222.695L287.334 222.841L287.333 222.285L445.273 222.139Z" fill="#DDDDDD"/>
<path d="M445.284 233.261L445.284 233.818L287.344 233.964L287.343 233.407L445.284 233.261Z" fill="#DDDDDD"/>
<path d="M445.284 233.261L445.284 233.818L287.344 233.964L287.343 233.407L445.284 233.261Z" fill="#DDDDDD"/>
<path d="M445.294 244.384L445.294 244.94L287.354 245.086L287.354 244.53L445.294 244.384Z" fill="#DDDDDD"/>
<path d="M445.304 255.507L445.305 256.063L287.365 256.209L287.364 255.653L445.304 255.507Z" fill="#DDDDDD"/>
<path d="M445.314 266.49L445.315 267.046L287.375 267.192L287.374 266.636L445.314 266.49Z" fill="#DDDDDD"/>
<path d="M445.325 277.752L445.325 278.308L287.385 278.454L287.385 277.898L445.325 277.752Z" fill="#DDDDDD"/>
<path d="M445.335 288.874L445.336 289.43L287.395 289.576L287.395 289.02L445.335 288.874Z" fill="#DDDDDD"/>
<path d="M445.335 288.874L445.336 289.43L287.395 289.576L287.395 289.02L445.335 288.874Z" fill="#DDDDDD"/>
<path d="M445.345 299.996L445.346 300.553L287.406 300.699L287.405 300.143L445.345 299.996Z" fill="#DDDDDD"/>
<path d="M282.231 117.321C282.233 119.624 280.367 121.493 278.064 121.496C275.76 121.498 273.891 119.632 273.889 117.328C273.887 115.025 275.752 113.156 278.056 113.154C280.36 113.151 282.229 115.017 282.231 117.321Z" fill="white"/>
<path d="M281.675 117.321C281.673 115.325 280.053 113.708 278.056 113.71C276.06 113.712 274.443 115.331 274.445 117.328C274.447 119.324 276.067 120.941 278.063 120.939L278.064 121.496C275.76 121.498 273.891 119.632 273.889 117.328C273.887 115.025 275.752 113.156 278.056 113.154C280.36 113.151 282.229 115.017 282.231 117.321C282.233 119.624 280.367 121.493 278.064 121.496L278.063 120.939C280.06 120.938 281.676 119.318 281.675 117.321Z" fill="black"/>
<path d="M282.231 117.321C282.233 119.624 280.367 121.493 278.064 121.496C275.76 121.498 273.891 119.632 273.889 117.328C273.887 115.025 275.752 113.156 278.056 113.154C280.36 113.151 282.229 115.017 282.231 117.321Z" fill="white"/>
<path d="M281.675 117.321C281.673 115.325 280.053 113.708 278.056 113.71C276.06 113.712 274.443 115.331 274.445 117.328C274.447 119.324 276.067 120.941 278.063 120.939L278.064 121.496C275.76 121.498 273.891 119.632 273.889 117.328C273.887 115.025 275.752 113.156 278.056 113.154C280.36 113.151 282.229 115.017 282.231 117.321C282.233 119.624 280.367 121.493 278.064 121.496L278.063 120.939C280.06 120.938 281.676 119.318 281.675 117.321Z" fill="black"/>
<path d="M282.303 195.179C282.305 197.482 280.439 199.351 278.136 199.353C275.832 199.356 273.963 197.49 273.961 195.186C273.959 192.883 275.824 191.014 278.128 191.012C280.432 191.009 282.301 192.875 282.303 195.179Z" fill="white"/>
<path d="M281.747 195.179C281.745 193.183 280.125 191.566 278.128 191.568C276.132 191.569 274.515 193.189 274.517 195.186C274.519 197.182 276.139 198.799 278.135 198.797L278.136 199.353C275.832 199.356 273.963 197.49 273.961 195.186C273.959 192.883 275.824 191.014 278.128 191.012C280.432 191.009 282.301 192.875 282.303 195.179C282.305 197.482 280.439 199.351 278.136 199.353L278.135 198.797C280.132 198.795 281.749 197.176 281.747 195.179Z" fill="black"/>
<path d="M282.375 273.036C282.377 275.34 280.511 277.209 278.208 277.211C275.904 277.213 274.035 275.347 274.033 273.044C274.031 270.74 275.896 268.871 278.2 268.869C280.504 268.867 282.373 270.732 282.375 273.036Z" fill="white"/>
<path d="M281.819 273.037C281.817 271.04 280.197 269.423 278.201 269.425C276.204 269.427 274.587 271.047 274.589 273.043C274.591 275.04 276.211 276.657 278.207 276.655L278.208 277.211C275.904 277.213 274.035 275.347 274.033 273.044C274.031 270.74 275.896 268.871 278.2 268.869C280.504 268.867 282.373 270.732 282.375 273.036C282.377 275.34 280.511 277.209 278.208 277.211L278.207 276.655C280.204 276.653 281.821 275.033 281.819 273.037Z" fill="black"/>
<path d="M445.16 99.5131L445.16 100.069L287.22 100.215L287.219 99.6592L445.16 99.5131Z" fill="#DDDDDD"/>
<path d="M445.17 110.775L445.171 111.331L287.23 111.477L287.23 110.921L445.17 110.775Z" fill="#DDDDDD"/>
<path d="M445.181 121.897L445.181 122.453L287.241 122.599L287.24 122.043L445.181 121.897Z" fill="#DDDDDD"/>
<path d="M445.181 121.897L445.181 122.453L287.241 122.599L287.24 122.043L445.181 121.897Z" fill="#DDDDDD"/>
<path d="M445.191 133.019L445.191 133.576L287.251 133.722L287.25 133.166L445.191 133.019Z" fill="#DDDDDD"/>
<path d="M445.201 144.142L445.202 144.698L287.261 144.844L287.261 144.288L445.201 144.142Z" fill="#DDDDDD"/>
</g>
<path d="M300.84 97.2074L300.582 97.2076L300.574 88.7115L296.819 95.7345L296.52 95.7348L292.77 88.7422L292.777 97.2148L292.52 97.2151L292.512 88.426L292.887 88.4257L296.672 95.5003L300.433 88.4187L300.832 88.4183L300.84 97.2074ZM303.229 88.8848C303.147 88.8849 303.078 88.8557 303.024 88.7971C302.969 88.7386 302.941 88.6683 302.941 88.5863C302.941 88.5081 302.969 88.4417 303.023 88.387C303.078 88.3283 303.146 88.299 303.228 88.2989C303.31 88.2988 303.381 88.3281 303.439 88.3866C303.498 88.4412 303.527 88.5096 303.527 88.5916C303.527 88.6736 303.498 88.744 303.44 88.8026C303.381 88.8574 303.311 88.8848 303.229 88.8848ZM303.359 97.205L303.119 97.2053L303.114 91.3459L303.354 91.3457L303.359 97.205ZM305.879 97.2027L305.645 97.2029L305.637 88.4139L305.871 88.4136L305.879 97.2027ZM308.287 97.2005L308.047 97.2007L308.039 88.4116L308.279 88.4114L308.286 95.3489L308.625 94.9619L312.085 91.3376L312.372 91.3373L310.024 93.8356L312.799 97.1963L312.5 97.1966L309.866 93.9998L308.286 95.6829L308.287 97.2005Z" fill="black"/>
<path d="M292.52 110.929L292.512 102.14L297.609 102.135L297.609 102.381L292.77 102.385L292.773 106.3L297.373 106.295L297.373 106.541L292.773 106.546L292.777 110.682L297.676 110.678L297.676 110.924L292.52 110.929ZM302.053 110.803C301.514 110.803 301.029 110.675 300.599 110.417C300.169 110.16 299.827 109.811 299.573 109.369C299.322 108.928 299.197 108.43 299.197 107.876C299.196 107.321 299.321 106.823 299.57 106.381C299.824 105.939 300.165 105.59 300.595 105.331C301.028 105.073 301.516 104.944 302.059 104.943C302.668 104.943 303.208 105.106 303.677 105.434C304.146 105.758 304.486 106.185 304.697 106.716L304.696 105.058L304.93 105.058L304.936 110.782C304.936 111.446 304.819 112.017 304.586 112.494C304.356 112.97 304.02 113.334 303.579 113.584C303.141 113.839 302.612 113.966 301.991 113.967C301.093 113.968 300.346 113.654 299.752 113.026L299.922 112.855C300.477 113.449 301.182 113.745 302.038 113.744C302.593 113.744 303.067 113.624 303.461 113.385C303.86 113.151 304.164 112.814 304.375 112.377C304.589 111.939 304.696 111.415 304.695 110.806L304.694 109.037C304.483 109.568 304.142 109.996 303.669 110.321C303.201 110.641 302.662 110.802 302.053 110.803ZM302.064 110.58C302.541 110.58 302.97 110.472 303.353 110.257C303.736 110.041 304.046 109.746 304.284 109.371C304.522 108.996 304.658 108.57 304.693 108.093L304.692 107.648C304.657 107.171 304.52 106.746 304.281 106.371C304.046 105.996 303.737 105.702 303.354 105.487C302.975 105.273 302.548 105.165 302.071 105.166C301.575 105.166 301.128 105.286 300.729 105.525C300.331 105.759 300.017 106.082 299.787 106.492C299.557 106.899 299.442 107.36 299.443 107.875C299.443 108.387 299.559 108.848 299.79 109.258C300.02 109.668 300.333 109.992 300.728 110.23C301.123 110.464 301.568 110.58 302.064 110.58ZM309.436 110.796C308.896 110.796 308.412 110.668 307.982 110.41C307.552 110.153 307.21 109.804 306.956 109.363C306.705 108.921 306.58 108.423 306.579 107.869C306.579 107.314 306.703 106.816 306.953 106.374C307.206 105.933 307.548 105.583 307.977 105.325C308.411 105.066 308.899 104.937 309.442 104.936C310.051 104.936 310.59 105.099 311.059 105.427C311.529 105.751 311.869 106.178 312.08 106.709L312.079 105.051L312.313 105.051L312.318 110.776C312.319 111.44 312.202 112.01 311.968 112.487C311.738 112.964 311.403 113.327 310.962 113.578C310.524 113.832 309.995 113.959 309.374 113.96C308.476 113.961 307.729 113.647 307.135 113.019L307.305 112.849C307.86 113.442 308.565 113.738 309.421 113.737C309.975 113.737 310.45 113.617 310.844 113.379C311.242 113.144 311.547 112.808 311.757 112.37C311.972 111.932 312.079 111.409 312.078 110.799L312.076 109.03C311.866 109.561 311.525 109.989 311.052 110.314C310.584 110.635 310.045 110.795 309.436 110.796ZM309.447 110.573C309.924 110.573 310.353 110.465 310.736 110.25C311.118 110.035 311.429 109.739 311.667 109.364C311.905 108.989 312.041 108.563 312.076 108.086L312.075 107.641C312.04 107.165 311.902 106.739 311.664 106.364C311.429 105.989 311.12 105.695 310.737 105.48C310.358 105.266 309.93 105.159 309.454 105.159C308.958 105.16 308.511 105.279 308.112 105.518C307.714 105.753 307.4 106.075 307.17 106.485C306.94 106.892 306.825 107.353 306.825 107.869C306.826 108.38 306.942 108.841 307.172 109.251C307.403 109.661 307.716 109.985 308.111 110.223C308.506 110.457 308.951 110.574 309.447 110.573ZM314.023 110.393L314.158 110.2C314.31 110.328 314.47 110.438 314.638 110.527C314.81 110.617 314.988 110.685 315.172 110.732C315.355 110.779 315.541 110.802 315.729 110.802C316.201 110.801 316.59 110.668 316.894 110.402C317.199 110.132 317.351 109.789 317.35 109.371C317.35 109.074 317.276 108.834 317.127 108.65C316.982 108.467 316.793 108.314 316.558 108.194C316.328 108.073 316.085 107.96 315.831 107.854C315.577 107.745 315.333 107.63 315.099 107.509C314.864 107.388 314.672 107.234 314.524 107.047C314.375 106.856 314.301 106.61 314.301 106.309C314.3 106.028 314.366 105.785 314.499 105.582C314.636 105.375 314.827 105.215 315.073 105.101C315.323 104.988 315.614 104.931 315.946 104.93C316.379 104.93 316.803 105.027 317.217 105.222L317.118 105.433C317.013 105.375 316.895 105.326 316.766 105.287C316.637 105.244 316.503 105.211 316.362 105.188C316.225 105.165 316.09 105.153 315.958 105.153C315.54 105.153 315.2 105.261 314.938 105.476C314.677 105.687 314.546 105.965 314.547 106.309C314.547 106.559 314.613 106.766 314.746 106.93C314.883 107.094 315.059 107.232 315.274 107.345C315.493 107.454 315.722 107.56 315.96 107.661C316.226 107.774 316.484 107.899 316.734 108.035C316.984 108.168 317.189 108.339 317.349 108.55C317.514 108.761 317.596 109.036 317.596 109.376C317.597 109.7 317.517 109.988 317.357 110.238C317.201 110.484 316.984 110.678 316.707 110.818C316.43 110.955 316.108 111.024 315.74 111.024C315.108 111.025 314.535 110.815 314.023 110.393Z" fill="black"/>
<path d="M292.52 122.683L292.512 113.894L294.89 113.892C295.582 113.891 296.168 113.992 296.649 114.195C297.133 114.398 297.502 114.688 297.757 115.067C298.011 115.446 298.138 115.903 298.139 116.438C298.139 116.969 298.013 117.426 297.759 117.809C297.506 118.192 297.137 118.486 296.653 118.689C296.172 118.893 295.587 118.995 294.895 118.996L292.774 118.998L292.777 122.683L292.52 122.683ZM292.774 118.751L294.895 118.749C295.84 118.749 296.572 118.543 297.092 118.132C297.615 117.718 297.876 117.153 297.875 116.438C297.875 115.723 297.612 115.161 297.088 114.751C296.569 114.342 295.836 114.137 294.891 114.138L292.77 114.14L292.774 118.751ZM304.25 122.672L304.063 122.673L304.014 121.29C303.855 121.743 303.58 122.107 303.189 122.38C302.799 122.654 302.34 122.791 301.813 122.792C301.418 122.792 301.063 122.714 300.746 122.559C300.43 122.403 300.179 122.19 299.996 121.921C299.816 121.651 299.725 121.347 299.725 121.007C299.725 120.647 299.824 120.329 300.023 120.051C300.226 119.774 300.505 119.555 300.86 119.394C301.22 119.234 301.632 119.153 302.096 119.153C302.456 119.153 302.798 119.203 303.122 119.304C303.45 119.402 303.745 119.548 304.007 119.743L304.007 119.04C304.006 118.598 303.928 118.22 303.771 117.903C303.618 117.587 303.398 117.345 303.108 117.177C302.819 117.006 302.473 116.92 302.071 116.921C301.727 116.921 301.395 116.984 301.075 117.109C300.759 117.23 300.476 117.404 300.226 117.631L300.079 117.415C300.36 117.184 300.673 117.008 301.016 116.886C301.364 116.761 301.715 116.698 302.071 116.698C302.516 116.698 302.901 116.791 303.225 116.978C303.55 117.165 303.8 117.431 303.976 117.774C304.156 118.118 304.246 118.526 304.247 118.999L304.25 122.672ZM301.836 122.569C302.246 122.569 302.615 122.473 302.943 122.281C303.271 122.089 303.531 121.829 303.722 121.501C303.913 121.173 304.008 120.807 304.008 120.405L304.007 120.013C303.714 119.798 303.409 119.638 303.093 119.533C302.78 119.428 302.446 119.375 302.091 119.376C301.466 119.376 300.956 119.525 300.562 119.822C300.168 120.12 299.971 120.505 299.971 120.977C299.971 121.278 300.054 121.549 300.218 121.791C300.382 122.03 300.605 122.219 300.887 122.359C301.168 122.5 301.484 122.57 301.836 122.569ZM305.949 122.155L306.083 121.962C306.236 122.091 306.396 122.2 306.564 122.289C306.736 122.379 306.914 122.447 307.098 122.494C307.281 122.541 307.467 122.564 307.654 122.564C308.127 122.563 308.516 122.43 308.82 122.164C309.124 121.895 309.276 121.551 309.276 121.133C309.276 120.836 309.201 120.596 309.053 120.412C308.908 120.229 308.718 120.077 308.484 119.956C308.253 119.835 308.011 119.722 307.757 119.616C307.503 119.507 307.259 119.392 307.024 119.271C306.79 119.151 306.598 118.996 306.45 118.809C306.301 118.618 306.227 118.372 306.226 118.071C306.226 117.79 306.292 117.548 306.425 117.344C306.561 117.137 306.753 116.977 306.999 116.863C307.249 116.75 307.539 116.693 307.872 116.693C308.305 116.692 308.729 116.789 309.143 116.984L309.044 117.195C308.938 117.137 308.821 117.088 308.692 117.049C308.563 117.006 308.428 116.973 308.288 116.95C308.151 116.927 308.016 116.915 307.883 116.915C307.465 116.916 307.126 117.023 306.864 117.238C306.603 117.45 306.472 117.727 306.472 118.071C306.473 118.321 306.539 118.528 306.672 118.692C306.809 118.856 306.985 118.994 307.2 119.107C307.419 119.216 307.647 119.322 307.886 119.423C308.152 119.536 308.409 119.661 308.66 119.797C308.91 119.93 309.115 120.102 309.275 120.312C309.44 120.523 309.522 120.798 309.522 121.138C309.522 121.463 309.443 121.75 309.283 122C309.127 122.246 308.91 122.44 308.633 122.581C308.356 122.717 308.033 122.786 307.666 122.786C307.033 122.787 306.461 122.577 305.949 122.155ZM313.994 122.54C313.693 122.701 313.389 122.781 313.08 122.781C312.807 122.782 312.569 122.721 312.365 122.601C312.162 122.476 312.004 122.3 311.89 122.074C311.777 121.847 311.72 121.584 311.72 121.283L311.716 117.029L310.69 117.03L310.69 116.807L311.715 116.806L311.714 115.341L311.954 115.341L311.956 116.806L313.831 116.804L313.831 117.027L311.956 117.029L311.96 121.242C311.96 121.64 312.064 121.96 312.271 122.202C312.478 122.44 312.754 122.559 313.098 122.559C313.355 122.559 313.623 122.484 313.9 122.335L313.994 122.54ZM319.754 122.658L319.567 122.658L319.518 121.276C319.359 121.729 319.084 122.092 318.693 122.366C318.303 122.64 317.844 122.777 317.317 122.778C316.922 122.778 316.567 122.7 316.25 122.544C315.933 122.388 315.683 122.176 315.499 121.906C315.319 121.637 315.229 121.332 315.229 120.992C315.229 120.633 315.328 120.315 315.527 120.037C315.73 119.76 316.009 119.54 316.364 119.38C316.723 119.22 317.136 119.139 317.6 119.139C317.96 119.138 318.302 119.189 318.626 119.29C318.954 119.387 319.249 119.534 319.511 119.729L319.51 119.026C319.51 118.584 319.432 118.205 319.275 117.889C319.122 117.573 318.901 117.331 318.612 117.163C318.323 116.991 317.977 116.906 317.575 116.906C317.231 116.907 316.899 116.969 316.579 117.095C316.263 117.216 315.98 117.39 315.73 117.617L315.583 117.4C315.864 117.17 316.176 116.993 316.52 116.872C316.868 116.747 317.219 116.684 317.575 116.684C318.02 116.683 318.405 116.777 318.729 116.964C319.054 117.151 319.304 117.416 319.48 117.76C319.66 118.104 319.75 118.512 319.751 118.984L319.754 122.658ZM317.34 122.555C317.75 122.555 318.119 122.458 318.447 122.267C318.775 122.075 319.034 121.815 319.226 121.487C319.417 121.158 319.512 120.793 319.512 120.391L319.511 119.998C319.218 119.784 318.913 119.624 318.597 119.519C318.284 119.413 317.95 119.361 317.595 119.361C316.97 119.362 316.46 119.511 316.066 119.808C315.672 120.105 315.475 120.49 315.475 120.963C315.475 121.264 315.558 121.535 315.722 121.777C315.886 122.015 316.109 122.204 316.39 122.345C316.672 122.485 316.988 122.555 317.34 122.555Z" fill="black"/>
<path d="M296.569 133.63C295.916 133.631 295.315 133.518 294.764 133.292C294.213 133.066 293.734 132.748 293.327 132.338C292.921 131.929 292.606 131.446 292.383 130.892C292.159 130.334 292.047 129.724 292.047 129.064C292.046 128.404 292.157 127.796 292.379 127.242C292.601 126.683 292.915 126.198 293.321 125.788C293.727 125.377 294.205 125.058 294.756 124.831C295.306 124.604 295.908 124.49 296.56 124.49C297.213 124.489 297.812 124.602 298.359 124.828C298.906 125.054 299.383 125.372 299.79 125.782C300.197 126.191 300.511 126.675 300.735 127.234C300.958 127.788 301.07 128.396 301.07 129.056C301.071 129.716 300.96 130.325 300.738 130.884C300.516 131.439 300.202 131.922 299.796 132.332C299.39 132.743 298.914 133.062 298.367 133.289C297.82 133.516 297.221 133.63 296.569 133.63ZM296.563 133.384C297.176 133.384 297.74 133.276 298.256 133.06C298.775 132.845 299.224 132.544 299.602 132.157C299.985 131.766 300.281 131.307 300.492 130.779C300.702 130.251 300.807 129.677 300.807 129.056C300.806 128.435 300.7 127.861 300.489 127.334C300.277 126.807 299.98 126.35 299.597 125.963C299.217 125.573 298.768 125.271 298.248 125.056C297.732 124.842 297.168 124.735 296.555 124.736C295.941 124.736 295.375 124.844 294.856 125.06C294.34 125.275 293.891 125.578 293.509 125.969C293.13 126.356 292.836 126.813 292.625 127.341C292.415 127.865 292.31 128.439 292.311 129.064C292.311 129.689 292.417 130.265 292.629 130.792C292.84 131.315 293.135 131.772 293.515 132.162C293.898 132.549 294.347 132.849 294.863 133.063C295.383 133.278 295.949 133.385 296.563 133.384ZM307.004 133.445L306.817 133.445L306.768 132.062C306.609 132.516 306.334 132.879 305.943 133.153C305.553 133.427 305.094 133.564 304.567 133.564C304.172 133.565 303.817 133.487 303.5 133.331C303.183 133.175 302.933 132.962 302.749 132.693C302.569 132.424 302.479 132.119 302.479 131.779C302.479 131.42 302.578 131.101 302.777 130.824C302.98 130.546 303.259 130.327 303.614 130.167C303.973 130.006 304.386 129.926 304.85 129.925C305.21 129.925 305.552 129.975 305.876 130.077C306.204 130.174 306.499 130.32 306.761 130.515L306.76 129.812C306.76 129.371 306.682 128.992 306.525 128.676C306.372 128.359 306.151 128.117 305.862 127.95C305.573 127.778 305.227 127.693 304.825 127.693C304.481 127.693 304.149 127.756 303.829 127.881C303.513 128.003 303.23 128.177 302.98 128.404L302.833 128.187C303.114 127.956 303.427 127.78 303.77 127.659C304.118 127.533 304.469 127.471 304.825 127.47C305.27 127.47 305.655 127.563 305.979 127.75C306.304 127.938 306.554 128.203 306.73 128.547C306.91 128.89 307 129.298 307.001 129.771L307.004 133.445ZM304.59 133.342C305 133.341 305.369 133.245 305.697 133.053C306.025 132.862 306.284 132.602 306.476 132.273C306.667 131.945 306.762 131.58 306.762 131.177L306.761 130.785C306.468 130.57 306.163 130.41 305.847 130.305C305.534 130.2 305.2 130.148 304.845 130.148C304.22 130.149 303.71 130.297 303.316 130.595C302.922 130.892 302.725 131.277 302.725 131.75C302.725 132.05 302.808 132.322 302.972 132.564C303.136 132.802 303.359 132.991 303.64 133.132C303.922 133.272 304.238 133.342 304.59 133.342ZM311.709 133.317C311.408 133.478 311.104 133.558 310.795 133.559C310.522 133.559 310.283 133.498 310.08 133.378C309.877 133.253 309.719 133.077 309.605 132.851C309.492 132.624 309.435 132.361 309.434 132.06L309.43 127.806L308.405 127.807L308.405 127.584L309.43 127.583L309.429 126.118L309.669 126.118L309.67 127.583L311.545 127.581L311.546 127.804L309.671 127.806L309.675 132.019C309.675 132.417 309.779 132.737 309.986 132.979C310.193 133.217 310.469 133.336 310.813 133.336C311.07 133.336 311.338 133.261 311.615 133.112L311.709 133.317ZM325.479 133.428L325.238 133.428L325.235 130.129C325.235 129.36 325.052 128.758 324.689 128.325C324.325 127.892 323.821 127.675 323.176 127.676C322.528 127.677 322.016 127.898 321.642 128.339C321.271 128.777 321.086 129.375 321.087 130.133L321.09 133.432L320.85 133.432L320.847 130.133C320.846 129.364 320.664 128.762 320.3 128.329C319.94 127.896 319.438 127.679 318.794 127.68C318.145 127.681 317.634 127.902 317.259 128.344C316.884 128.781 316.698 129.379 316.698 130.137L316.701 133.436L316.461 133.436L316.456 127.577L316.678 127.576L316.691 128.948C316.863 128.459 317.128 128.09 317.487 127.839C317.85 127.585 318.291 127.458 318.811 127.457C319.385 127.457 319.86 127.611 320.235 127.919C320.611 128.227 320.863 128.666 320.992 129.237C321.14 128.654 321.402 128.213 321.776 127.912C322.155 127.607 322.629 127.454 323.2 127.453C323.914 127.453 324.471 127.688 324.87 128.161C325.273 128.629 325.475 129.285 325.476 130.129L325.479 133.428ZM327.815 125.105C327.733 125.105 327.664 125.076 327.61 125.018C327.555 124.959 327.527 124.889 327.527 124.807C327.527 124.729 327.554 124.662 327.609 124.607C327.664 124.549 327.732 124.519 327.814 124.519C327.896 124.519 327.966 124.548 328.025 124.607C328.084 124.662 328.113 124.73 328.113 124.812C328.113 124.894 328.084 124.964 328.026 125.023C327.967 125.078 327.897 125.105 327.815 125.105ZM327.945 133.425L327.705 133.426L327.7 127.566L327.94 127.566L327.945 133.425ZM330.465 133.423L330.231 133.423L330.222 124.634L330.457 124.634L330.465 133.423ZM332.873 133.421L332.633 133.421L332.625 124.632L332.865 124.632L332.871 131.569L333.211 131.182L336.67 127.558L336.958 127.558L334.61 130.056L337.385 133.417L337.086 133.417L334.452 130.22L332.872 131.903L332.873 133.421Z" fill="black"/>
<path d="M296.569 133.63C295.916 133.631 295.315 133.518 294.764 133.292C294.213 133.066 293.734 132.748 293.327 132.338C292.921 131.929 292.606 131.446 292.383 130.892C292.159 130.334 292.047 129.724 292.047 129.064C292.046 128.404 292.157 127.796 292.379 127.242C292.601 126.683 292.915 126.198 293.321 125.788C293.727 125.377 294.205 125.058 294.756 124.831C295.306 124.604 295.908 124.49 296.56 124.49C297.213 124.489 297.812 124.602 298.359 124.828C298.906 125.054 299.383 125.372 299.79 125.782C300.197 126.191 300.511 126.675 300.735 127.234C300.958 127.788 301.07 128.396 301.07 129.056C301.071 129.716 300.96 130.325 300.738 130.884C300.516 131.439 300.202 131.922 299.796 132.332C299.39 132.743 298.914 133.062 298.367 133.289C297.82 133.516 297.221 133.63 296.569 133.63ZM296.563 133.384C297.176 133.384 297.74 133.276 298.256 133.06C298.775 132.845 299.224 132.544 299.602 132.157C299.985 131.766 300.281 131.307 300.492 130.779C300.702 130.251 300.807 129.677 300.807 129.056C300.806 128.435 300.7 127.861 300.489 127.334C300.277 126.807 299.98 126.35 299.597 125.963C299.217 125.573 298.768 125.271 298.248 125.056C297.732 124.842 297.168 124.735 296.555 124.736C295.941 124.736 295.375 124.844 294.856 125.06C294.34 125.275 293.891 125.578 293.509 125.969C293.13 126.356 292.836 126.813 292.625 127.341C292.415 127.865 292.31 128.439 292.311 129.064C292.311 129.689 292.417 130.265 292.629 130.792C292.84 131.315 293.135 131.772 293.515 132.162C293.898 132.549 294.347 132.849 294.863 133.063C295.383 133.278 295.949 133.385 296.563 133.384ZM307.004 133.445L306.817 133.445L306.768 132.062C306.609 132.516 306.334 132.879 305.943 133.153C305.553 133.427 305.094 133.564 304.567 133.564C304.172 133.565 303.817 133.487 303.5 133.331C303.183 133.175 302.933 132.962 302.749 132.693C302.569 132.424 302.479 132.119 302.479 131.779C302.479 131.42 302.578 131.101 302.777 130.824C302.98 130.546 303.259 130.327 303.614 130.167C303.973 130.006 304.386 129.926 304.85 129.925C305.21 129.925 305.552 129.975 305.876 130.077C306.204 130.174 306.499 130.32 306.761 130.515L306.76 129.812C306.76 129.371 306.682 128.992 306.525 128.676C306.372 128.359 306.151 128.117 305.862 127.95C305.573 127.778 305.227 127.693 304.825 127.693C304.481 127.693 304.149 127.756 303.829 127.881C303.513 128.003 303.23 128.177 302.98 128.404L302.833 128.187C303.114 127.956 303.427 127.78 303.77 127.659C304.118 127.533 304.469 127.471 304.825 127.47C305.27 127.47 305.655 127.563 305.979 127.75C306.304 127.938 306.554 128.203 306.73 128.547C306.91 128.89 307 129.298 307.001 129.771L307.004 133.445ZM304.59 133.342C305 133.341 305.369 133.245 305.697 133.053C306.025 132.862 306.284 132.602 306.476 132.273C306.667 131.945 306.762 131.58 306.762 131.177L306.761 130.785C306.468 130.57 306.163 130.41 305.847 130.305C305.534 130.2 305.2 130.148 304.845 130.148C304.22 130.149 303.71 130.297 303.316 130.595C302.922 130.892 302.725 131.277 302.725 131.75C302.725 132.05 302.808 132.322 302.972 132.564C303.136 132.802 303.359 132.991 303.64 133.132C303.922 133.272 304.238 133.342 304.59 133.342ZM311.709 133.317C311.408 133.478 311.104 133.558 310.795 133.559C310.522 133.559 310.283 133.498 310.08 133.378C309.877 133.253 309.719 133.077 309.605 132.851C309.492 132.624 309.435 132.361 309.434 132.06L309.43 127.806L308.405 127.807L308.405 127.584L309.43 127.583L309.429 126.118L309.669 126.118L309.67 127.583L311.545 127.581L311.546 127.804L309.671 127.806L309.675 132.019C309.675 132.417 309.779 132.737 309.986 132.979C310.193 133.217 310.469 133.336 310.813 133.336C311.07 133.336 311.338 133.261 311.615 133.112L311.709 133.317ZM325.479 133.428L325.238 133.428L325.235 130.129C325.235 129.36 325.052 128.758 324.689 128.325C324.325 127.892 323.821 127.675 323.176 127.676C322.528 127.677 322.016 127.898 321.642 128.339C321.271 128.777 321.086 129.375 321.087 130.133L321.09 133.432L320.85 133.432L320.847 130.133C320.846 129.364 320.664 128.762 320.3 128.329C319.94 127.896 319.438 127.679 318.794 127.68C318.145 127.681 317.634 127.902 317.259 128.344C316.884 128.781 316.698 129.379 316.698 130.137L316.701 133.436L316.461 133.436L316.456 127.577L316.678 127.576L316.691 128.948C316.863 128.459 317.128 128.09 317.487 127.839C317.85 127.585 318.291 127.458 318.811 127.457C319.385 127.457 319.86 127.611 320.235 127.919C320.611 128.227 320.863 128.666 320.992 129.237C321.14 128.654 321.402 128.213 321.776 127.912C322.155 127.607 322.629 127.454 323.2 127.453C323.914 127.453 324.471 127.688 324.87 128.161C325.273 128.629 325.475 129.285 325.476 130.129L325.479 133.428ZM327.815 125.105C327.733 125.105 327.664 125.076 327.61 125.018C327.555 124.959 327.527 124.889 327.527 124.807C327.527 124.729 327.554 124.662 327.609 124.607C327.664 124.549 327.732 124.519 327.814 124.519C327.896 124.519 327.966 124.548 328.025 124.607C328.084 124.662 328.113 124.73 328.113 124.812C328.113 124.894 328.084 124.964 328.026 125.023C327.967 125.078 327.897 125.105 327.815 125.105ZM327.945 133.425L327.705 133.426L327.7 127.566L327.94 127.566L327.945 133.425ZM330.465 133.423L330.231 133.423L330.222 124.634L330.457 124.634L330.465 133.423ZM332.873 133.421L332.633 133.421L332.625 124.632L332.865 124.632L332.871 131.569L333.211 131.182L336.67 127.558L336.958 127.558L334.61 130.056L337.385 133.417L337.086 133.417L334.452 130.22L332.872 131.903L332.873 133.421Z" fill="black"/>
<path d="M299.814 144.063C299.415 144.478 298.939 144.802 298.385 145.037C297.83 145.268 297.225 145.384 296.569 145.385C295.916 145.385 295.315 145.273 294.764 145.046C294.213 144.82 293.734 144.503 293.327 144.093C292.921 143.683 292.606 143.201 292.383 142.646C292.159 142.088 292.047 141.479 292.047 140.819C292.046 140.158 292.157 139.551 292.379 138.996C292.601 138.437 292.915 137.952 293.321 137.542C293.727 137.131 294.205 136.813 294.756 136.586C295.306 136.358 295.908 136.245 296.56 136.244C297.216 136.243 297.82 136.36 298.371 136.594C298.926 136.824 299.405 137.144 299.807 137.554L299.626 137.741C299.247 137.347 298.795 137.041 298.272 136.823C297.748 136.6 297.176 136.49 296.555 136.49C295.941 136.491 295.375 136.599 294.856 136.814C294.34 137.029 293.891 137.332 293.509 137.723C293.13 138.11 292.836 138.568 292.625 139.095C292.415 139.619 292.31 140.193 292.311 140.818C292.311 141.443 292.417 142.019 292.629 142.546C292.84 143.07 293.135 143.526 293.515 143.917C293.898 144.303 294.347 144.604 294.863 144.818C295.383 145.032 295.949 145.139 296.563 145.139C297.184 145.138 297.756 145.026 298.279 144.803C298.802 144.58 299.253 144.273 299.632 143.882L299.814 144.063ZM305.809 145.2L305.621 145.2L305.573 143.818C305.413 144.271 305.138 144.635 304.748 144.908C304.358 145.182 303.899 145.319 303.371 145.32C302.977 145.32 302.621 145.242 302.305 145.086C301.988 144.93 301.738 144.718 301.554 144.448C301.374 144.179 301.284 143.874 301.284 143.535C301.283 143.175 301.383 142.857 301.582 142.579C301.785 142.302 302.064 142.083 302.419 141.922C302.778 141.762 303.19 141.681 303.655 141.681C304.014 141.68 304.356 141.731 304.681 141.832C305.009 141.93 305.304 142.076 305.566 142.271L305.565 141.568C305.565 141.126 305.486 140.747 305.33 140.431C305.177 140.115 304.956 139.873 304.667 139.705C304.378 139.534 304.032 139.448 303.63 139.448C303.286 139.449 302.954 139.512 302.634 139.637C302.317 139.758 302.034 139.932 301.785 140.159L301.638 139.942C301.919 139.712 302.231 139.536 302.575 139.414C302.922 139.289 303.274 139.226 303.629 139.226C304.075 139.225 304.46 139.319 304.784 139.506C305.108 139.693 305.359 139.959 305.535 140.302C305.715 140.646 305.805 141.054 305.805 141.526L305.809 145.2ZM303.395 145.097C303.805 145.097 304.174 145.001 304.502 144.809C304.83 144.617 305.089 144.357 305.28 144.029C305.471 143.701 305.567 143.335 305.566 142.933L305.566 142.54C305.273 142.326 304.968 142.166 304.651 142.061C304.339 141.956 304.005 141.903 303.649 141.903C303.024 141.904 302.515 142.053 302.121 142.35C301.726 142.647 301.529 143.032 301.53 143.505C301.53 143.806 301.612 144.077 301.777 144.319C301.941 144.557 302.164 144.747 302.445 144.887C302.727 145.027 303.043 145.097 303.395 145.097ZM310.514 145.073C310.213 145.233 309.908 145.314 309.6 145.314C309.326 145.314 309.088 145.254 308.885 145.133C308.682 145.008 308.523 144.833 308.41 144.606C308.296 144.38 308.239 144.116 308.239 143.815L308.235 139.561L307.21 139.562L307.21 139.34L308.235 139.339L308.234 137.874L308.474 137.874L308.475 139.338L310.35 139.337L310.35 139.559L308.475 139.561L308.479 143.774C308.48 144.172 308.583 144.493 308.791 144.735C308.998 144.973 309.273 145.092 309.617 145.091C309.875 145.091 310.143 145.017 310.42 144.868L310.514 145.073ZM315.945 145.191L315.705 145.191L315.7 139.554L314.675 139.555L314.674 139.333L315.7 139.332L315.698 137.726C315.698 137.422 315.754 137.158 315.867 136.935C315.981 136.708 316.139 136.535 316.342 136.413C316.545 136.288 316.783 136.225 317.056 136.225C317.205 136.225 317.357 136.246 317.513 136.289C317.67 136.328 317.822 136.386 317.971 136.464L317.877 136.67C317.74 136.596 317.603 136.541 317.467 136.506C317.334 136.467 317.203 136.448 317.074 136.448C316.73 136.448 316.455 136.569 316.248 136.812C316.041 137.05 315.938 137.369 315.939 137.767L315.94 139.332L317.815 139.33L317.815 139.552L315.94 139.554L315.945 145.191ZM321.975 145.303C321.408 145.303 320.899 145.171 320.445 144.906C319.996 144.636 319.638 144.273 319.372 143.817C319.11 143.356 318.978 142.837 318.978 142.258C318.977 141.68 319.108 141.163 319.369 140.705C319.634 140.244 319.991 139.881 320.44 139.615C320.893 139.345 321.403 139.209 321.969 139.209C322.536 139.208 323.044 139.343 323.493 139.612C323.942 139.877 324.298 140.24 324.56 140.701C324.823 141.157 324.954 141.675 324.954 142.253C324.955 142.827 324.825 143.345 324.563 143.806C324.302 144.267 323.947 144.633 323.498 144.903C323.049 145.169 322.541 145.302 321.975 145.303ZM321.975 145.08C322.494 145.079 322.959 144.956 323.369 144.709C323.783 144.459 324.108 144.121 324.346 143.695C324.588 143.269 324.709 142.788 324.708 142.253C324.708 141.718 324.586 141.238 324.344 140.812C324.105 140.387 323.779 140.051 323.364 139.805C322.954 139.556 322.489 139.431 321.969 139.431C321.45 139.432 320.981 139.557 320.563 139.808C320.15 140.054 319.822 140.39 319.58 140.816C319.342 141.242 319.223 141.723 319.224 142.258C319.224 142.793 319.344 143.274 319.583 143.699C319.825 144.125 320.154 144.462 320.568 144.712C320.986 144.958 321.455 145.08 321.975 145.08ZM329.182 145.296C328.615 145.296 328.106 145.164 327.652 144.899C327.203 144.63 326.845 144.267 326.579 143.81C326.317 143.349 326.185 142.83 326.185 142.252C326.184 141.674 326.315 141.156 326.576 140.699C326.841 140.238 327.198 139.874 327.647 139.608C328.1 139.338 328.61 139.203 329.176 139.202C329.743 139.202 330.251 139.336 330.7 139.605C331.149 139.87 331.505 140.233 331.767 140.694C332.03 141.151 332.161 141.668 332.161 142.246C332.162 142.82 332.032 143.338 331.77 143.799C331.509 144.261 331.154 144.626 330.705 144.896C330.256 145.162 329.748 145.295 329.182 145.296ZM329.182 145.073C329.701 145.073 330.166 144.949 330.576 144.703C330.99 144.452 331.316 144.114 331.553 143.688C331.795 143.262 331.916 142.782 331.915 142.246C331.915 141.711 331.793 141.231 331.551 140.805C331.312 140.38 330.986 140.044 330.571 139.799C330.161 139.549 329.696 139.424 329.176 139.425C328.657 139.425 328.188 139.551 327.771 139.801C327.357 140.048 327.029 140.384 326.787 140.81C326.549 141.236 326.43 141.716 326.431 142.252C326.431 142.787 326.551 143.267 326.79 143.693C327.032 144.118 327.361 144.456 327.775 144.705C328.193 144.951 328.662 145.074 329.182 145.073ZM339.359 145.169L339.119 145.17L339.118 143.505C338.903 144.064 338.552 144.502 338.064 144.819C337.576 145.132 337.024 145.289 336.406 145.289C335.828 145.29 335.313 145.157 334.859 144.892C334.406 144.623 334.048 144.258 333.786 143.797C333.524 143.337 333.392 142.819 333.392 142.245C333.391 141.667 333.522 141.149 333.783 140.692C334.044 140.231 334.401 139.867 334.854 139.601C335.307 139.331 335.823 139.196 336.401 139.195C337.018 139.195 337.571 139.353 338.059 139.669C338.548 139.984 338.9 140.422 339.115 140.98L339.111 136.38L339.351 136.38L339.359 145.169ZM336.383 145.067C336.883 145.066 337.34 144.952 337.754 144.725C338.167 144.495 338.497 144.182 338.743 143.787C338.993 143.388 339.117 142.937 339.117 142.433L339.116 142.046C339.116 141.554 338.994 141.109 338.752 140.711C338.509 140.313 338.181 139.999 337.767 139.768C337.356 139.534 336.895 139.418 336.383 139.418C335.864 139.419 335.395 139.544 334.978 139.794C334.564 140.041 334.236 140.377 333.994 140.803C333.756 141.229 333.638 141.71 333.638 142.245C333.639 142.78 333.758 143.26 333.997 143.686C334.239 144.112 334.568 144.449 334.982 144.699C335.396 144.944 335.863 145.067 336.383 145.067Z" fill="black"/>
<defs>
<filter id="filter0_dd_127_469" x="31.7395" y="28.6318" width="240.949" height="280.953" filterUnits="userSpaceOnUse" color-interpolation-filters="sRGB">
<feFlood flood-opacity="0" result="BackgroundImageFix"/>
<feColorMatrix in="SourceAlpha" type="matrix" values="0 0 0 0 0 0 0 0 0 0 0 0 0 0 0 0 0 0 127 0" result="hardAlpha"/>
<feOffset dy="4"/>
<feGaussianBlur stdDeviation="2"/>
<feComposite in2="hardAlpha" operator="out"/>
<feColorMatrix type="matrix" values="0 0 0 0 0 0 0 0 0 0 0 0 0 0 0 0 0 0 0.25 0"/>
<feBlend mode="normal" in2="BackgroundImageFix" result="effect1_dropShadow_127_469"/>
<feColorMatrix in="SourceAlpha" type="matrix" values="0 0 0 0 0 0 0 0 0 0 0 0 0 0 0 0 0 0 127 0" result="hardAlpha"/>
<feOffset dx="10" dy="15"/>
<feGaussianBlur stdDeviation="12.5"/>
<feComposite in2="hardAlpha" operator="out"/>
<feColorMatrix type="matrix" values="0 0 0 0 0 0 0 0 0 0 0 0 0 0 0 0 0 0 0.2 0"/>
<feBlend mode="normal" in2="effect1_dropShadow_127_469" result="effect2_dropShadow_127_469"/>
<feBlend mode="normal" in="SourceGraphic" in2="effect2_dropShadow_127_469" result="shape"/>
</filter>
<filter id="filter1_dd_127_469" x="133.74" y="45.6316" width="240.949" height="280.953" filterUnits="userSpaceOnUse" color-interpolation-filters="sRGB">
<feFlood flood-opacity="0" result="BackgroundImageFix"/>
<feColorMatrix in="SourceAlpha" type="matrix" values="0 0 0 0 0 0 0 0 0 0 0 0 0 0 0 0 0 0 127 0" result="hardAlpha"/>
<feOffset dy="4"/>
<feGaussianBlur stdDeviation="2"/>
<feComposite in2="hardAlpha" operator="out"/>
<feColorMatrix type="matrix" values="0 0 0 0 0 0 0 0 0 0 0 0 0 0 0 0 0 0 0.25 0"/>
<feBlend mode="normal" in2="BackgroundImageFix" result="effect1_dropShadow_127_469"/>
<feColorMatrix in="SourceAlpha" type="matrix" values="0 0 0 0 0 0 0 0 0 0 0 0 0 0 0 0 0 0 127 0" result="hardAlpha"/>
<feOffset dx="10" dy="15"/>
<feGaussianBlur stdDeviation="12.5"/>
<feComposite in2="hardAlpha" operator="out"/>
<feColorMatrix type="matrix" values="0 0 0 0 0 0 0 0 0 0 0 0 0 0 0 0 0 0 0.2 0"/>
<feBlend mode="normal" in2="effect1_dropShadow_127_469" result="effect2_dropShadow_127_469"/>
<feBlend mode="normal" in="SourceGraphic" in2="effect2_dropShadow_127_469" result="shape"/>
</filter>
<filter id="filter2_dd_127_469" x="247.74" y="69.6316" width="240.949" height="280.953" filterUnits="userSpaceOnUse" color-interpolation-filters="sRGB">
<feFlood flood-opacity="0" result="BackgroundImageFix"/>
<feColorMatrix in="SourceAlpha" type="matrix" values="0 0 0 0 0 0 0 0 0 0 0 0 0 0 0 0 0 0 127 0" result="hardAlpha"/>
<feOffset dy="4"/>
<feGaussianBlur stdDeviation="2"/>
<feComposite in2="hardAlpha" operator="out"/>
<feColorMatrix type="matrix" values="0 0 0 0 0 0 0 0 0 0 0 0 0 0 0 0 0 0 0.25 0"/>
<feBlend mode="normal" in2="BackgroundImageFix" result="effect1_dropShadow_127_469"/>
<feColorMatrix in="SourceAlpha" type="matrix" values="0 0 0 0 0 0 0 0 0 0 0 0 0 0 0 0 0 0 127 0" result="hardAlpha"/>
<feOffset dx="10" dy="15"/>
<feGaussianBlur stdDeviation="12.5"/>
<feComposite in2="hardAlpha" operator="out"/>
<feColorMatrix type="matrix" values="0 0 0 0 0 0 0 0 0 0 0 0 0 0 0 0 0 0 0.2 0"/>
<feBlend mode="normal" in2="effect1_dropShadow_127_469" result="effect2_dropShadow_127_469"/>
<feBlend mode="normal" in="SourceGraphic" in2="effect2_dropShadow_127_469" result="shape"/>
</filter>
</defs>
</svg>
